<?xml version="1.0" encoding="UTF-8" standalone="no"?>
<svg
   xmlns:dc="http://purl.org/dc/elements/1.1/"
   xmlns:cc="http://creativecommons.org/ns#"
   xmlns:rdf="http://www.w3.org/1999/02/22-rdf-syntax-ns#"
   xmlns:svg="http://www.w3.org/2000/svg"
   xmlns="http://www.w3.org/2000/svg"
   viewBox="0 0 793.70667 793.70667"
   height="793.70667"
   width="793.70667"
   xml:space="preserve"
   id="svg2"
   version="1.1"><metadata
     id="metadata8"><rdf:RDF><cc:Work
         rdf:about=""><dc:format>image/svg+xml</dc:format><dc:type
           rdf:resource="http://purl.org/dc/dcmitype/StillImage" /></cc:Work></rdf:RDF></metadata><defs
     id="defs6" /><g
     transform="matrix(1.3333333,0,0,-1.3333333,0,793.70667)"
     id="g10"><g
       transform="scale(0.1)"
       id="g12"><path
         id="path14"
         style="fill:#ad1c22;fill-opacity:1;fill-rule:nonzero;stroke:none"
         d="m 1531.18,4649.88 c 84.1,8.21 168.2,16.42 254.35,16.42 53.64,0 107.55,-0.55 160.68,-8.81 26.53,-4.14 58.91,-8.89 81.34,-24.97 38.59,-27.65 8.06,-74.21 -9.71,-105.71 -19.45,-34.45 -29.8,-73 -35.45,-110.71 -16.87,-112.6 29.84,-219.15 83.69,-315.38 47.21,-84.33 107.98,-163.28 82.98,-261.07 -4.73,-18.51 -3.42,-39.02 -9.18,-57.42 -4.65,-14.86 -16.35,-31.29 -24.62,-44.67 -19.6,-31.77 -39.07,-60.8 -73.32,-78.92 -81.75,-43.22 -193.75,-55.09 -283.07,-42.52 -24.45,3.44 -45.51,4.17 -69.24,12.76 -27.34,9.91 -55.25,18.63 -82.55,28.22 -39.13,13.75 -78.62,24.87 -116.93,42.61 -65.94,30.56 -155.51,107.8 -164.1,183.02 -11.28,99 33.53,175.09 86.71,254.4 52.13,77.73 126.57,168.28 108.61,268.66 -6.95,38.83 -22.03,72.21 -33.32,108.61 -9.46,30.48 -14.19,62.3 -23.03,94.46 -4.81,17.51 -6.93,20.94 6.1,29.35 14.11,9.11 43.62,8.69 60.06,11.67" /><path
         id="path16"
         style="fill:#ad1c22;fill-opacity:1;fill-rule:nonzero;stroke:none"
         d="m 1529.01,4648.63 c 81.32,7.94 162.66,15.52 244.42,16.39 73.81,0.79 153.06,1.78 224.3,-20.19 27.27,-8.41 48.34,-25.88 45.75,-56.01 -2.44,-28.39 -23.94,-54.66 -36.15,-79.43 -32.59,-66.13 -36.69,-145.05 -22.68,-216.32 14.02,-71.36 47.86,-138.02 83.35,-200.82 32.85,-58.14 72.13,-114.4 82.85,-181.74 5.34,-33.45 -4.17,-63.85 -7.74,-96.69 -3.9,-35.86 -18.92,-60.13 -37.88,-90.05 -21.11,-33.32 -44.99,-57.09 -81.58,-73.77 -31.16,-14.21 -64.72,-22.91 -98.29,-29.15 -63.89,-11.87 -126.74,-7.98 -190.72,-0.19 -36.99,4.49 -72,19.59 -107.12,31.41 -39.27,13.2 -78.98,25.69 -117.45,41.14 -57.06,22.92 -108.01,62.43 -145.79,110.79 -40.78,52.18 -44.52,114.65 -29.14,177.39 31.43,128.23 146.87,215.25 183.55,341.02 20.82,71.39 -11.07,134.37 -30.95,201.58 -9.5,32.15 -15.67,65.58 -23.73,98.13 -6.44,26.04 49.88,24.21 65,26.51 1.55,0.24 2.81,2.27 4.33,2.5 -20.89,-3.18 -61.48,-0.19 -73.77,-23.74 -4.24,-8.12 5.84,-29.51 7.75,-37.28 4.23,-17.17 7.65,-34.53 11.7,-51.74 8.65,-36.74 23.85,-71.48 34.22,-107.71 39.39,-137.5 -79.05,-248.61 -142.23,-357.57 -34.25,-59.06 -53.86,-122.97 -47.12,-191.61 5.79,-59.01 56.08,-108.72 100.02,-143.32 55.99,-44.1 123.89,-62.48 190.12,-85.48 35.15,-12.2 71.01,-27.25 107.79,-33.36 34.03,-5.66 68.84,-8.84 103.33,-9.18 93.63,-0.95 212.12,18.14 272.16,98.12 16.88,22.47 34.94,48.83 44.73,75.22 5.69,15.34 5.17,33.33 7.49,49.38 2.79,19.31 7.38,37.05 7.49,56.79 0.36,66.95 -39.54,128.08 -72.21,183.58 -74.76,127.07 -133.38,266.11 -83.46,413.54 15.2,44.89 80.65,113.16 22.01,151.11 -26.35,17.07 -63.48,19.5 -93.77,23.46 -40.7,5.33 -81.97,5.94 -122.95,6.18 -91.47,0.54 -182.35,-7.51 -273.3,-16.39 -1.52,-0.15 -2.83,-2.35 -4.33,-2.5" /><path
         id="path18"
         style="fill:#231f20;fill-opacity:1;fill-rule:nonzero;stroke:none"
         d="m 1838.52,5069.68 c 11.73,11.92 -13.3,-2.86 1.78,0.72 5.05,1.2 10.32,0.81 15.42,0.43 10.26,-0.76 19.43,-6.01 27.08,-12.49 20.62,-17.44 13.23,-46.72 0.76,-66.16 -31.24,-48.7 -96.04,-31.41 -115.93,23.66 -17.48,48.36 26.05,118.02 65,130.68 56.76,18.45 109.51,-27.25 130.52,-76.15 21.64,-50.35 18.52,-111.68 11.76,-164.74 -4.25,-33.25 -14.68,-65.26 -34.03,-92.79 -18,-25.6 -43.07,-30.79 -72.08,-37.84 -72.52,-17.61 -148.5,-19.05 -222.23,-9.33 -28.97,3.82 -59.69,8.52 -86.51,20.66 -22.8,10.32 -33.11,36.11 -10.57,52.74 -7.38,-4.29 -14.75,-8.6 -22.13,-12.89 17.97,10.12 41.84,10.23 61.81,13.03 35.32,4.96 71.08,6.62 106.7,7.61 70.17,1.96 139.96,-0.07 209.7,-8.3 53.08,-6.26 115.97,-10.57 164.05,-36.02 15.96,-8.44 31.61,-24.68 29.26,-43.91 -0.97,-7.92 -7.25,-14.5 -12.71,-19.7 -11.81,-11.25 23.43,9.7 -3.23,-2.7 -4.73,-2.21 -9.63,-4.06 -14.51,-5.92 -48.88,-18.72 -100.51,-23.24 -152.42,-24.88 -68.48,-2.17 -136.91,-5.4 -205.42,-2.89 -68.04,2.49 -136.4,12.02 -201.17,33.47 -28.51,9.44 -54.49,24.83 -82.58,35.42 -13.11,4.93 -40.27,15.45 -47.6,28.04 0.45,-0.77 -26.33,-13.11 -25.98,-15 5.28,-28.36 25.94,-49.45 43.89,-70.8 23.18,-27.56 37.06,-60.62 48.7,-94.38 25.09,-72.8 33.14,-149.89 26.79,-226.45 -5.99,-72.34 -21.07,-149.62 -54.7,-214.39 -16.19,-31.19 -31.11,-63.08 -48.61,-93.57 -14.62,-25.47 -30.37,-49.24 -41.62,-76.55 -77.18,-187.49 101.72,-324.3 258.19,-380.28 153.91,-55.07 325.64,-52.27 475.86,14.41 9.1,4.05 16.92,10.98 25.98,15 -193.95,-86.09 -428.25,-65.81 -606.32,48.92 -69.36,44.7 -130.38,110.3 -144.02,194.25 -7.08,43.58 1.94,87.82 18.55,128.18 10.4,25.26 25.36,47.77 39.36,71.07 19.57,32.57 35.17,67.69 52.67,101.39 24.44,47.08 34.59,100.78 43.28,152.6 9.72,57.91 12.23,115.52 5.33,173.92 -6.35,53.6 -21.72,107.23 -44.69,156.05 -19.17,40.75 -64.26,70.52 -72.66,115.63 -8.66,-5 -17.32,-10 -25.98,-15 7.55,-12.97 34.33,-22.51 47.59,-28.04 32.91,-13.72 64.69,-30.13 98.88,-40.61 74.69,-22.91 153.71,-28.68 231.42,-29.29 76.8,-0.62 156.5,-0.54 232.77,8.89 40.39,5 81.08,17.84 116.38,38.1 29.5,16.92 62.77,38.97 30.49,72.97 -18.09,19.05 -49.21,25.33 -73.75,30.48 -34.78,7.31 -70.26,12.19 -105.49,16.59 -79.26,9.91 -159.21,10.61 -238.92,7.29 -49.4,-2.06 -108.69,-1.84 -152.75,-27.12 -13.02,-7.47 -26.03,-13.18 -29.44,-29.26 -5.55,-26.18 32.41,-37.67 50.58,-42.48 73.25,-19.38 152.11,-21.41 226.96,-11.99 51.12,6.43 97.87,19.51 142.06,45.62 53.3,31.49 68.55,92.59 73.56,150.51 4.71,54.43 2.53,113.46 -25.77,161.7 -27.58,47.01 -88.55,73.2 -138.72,45.97 -39.1,-21.22 -72.1,-44.49 -91.33,-86.57 -23.47,-51.35 2.62,-122.3 66.48,-119.38 19.67,0.9 39.48,14.95 55.89,24.88 27.69,16.76 55.46,42.83 50.93,78.08 -3.92,30.53 -39.88,40.5 -64.84,31.67 -14.88,-5.27 -32.69,-16.57 -43.7,-27.76 6.71,6.82 19.18,8.09 25.98,15 v 0" /><path
         id="path20"
         style="fill:#231f20;fill-opacity:1;fill-rule:nonzero;stroke:none"
         d="m 2162.72,4782.76 c -17.92,-32.94 -40.12,-63.16 -59.88,-94.98 -22.62,-36.41 -37.67,-77.12 -51.66,-117.47 -29.51,-85.19 -33.26,-168.23 -24.04,-257.19 4.29,-41.3 11.49,-82.54 24.03,-122.17 11.49,-36.3 30.25,-70.11 48.51,-103.33 36.99,-67.33 69.2,-130.97 69.2,-209.44 0,1.61 8.66,3.27 8.66,5 0,78.41 -32.13,142.2 -69.2,209.44 -17.21,31.2 -33.76,62.66 -46.05,96.17 -15.15,41.25 -21.58,85.87 -26.49,129.33 -10.07,89.17 -4.44,171.75 24.04,257.19 12.66,37.94 27.46,75.87 47.49,110.54 20.09,34.79 44.83,66.57 64.06,101.91 -1.34,-2.46 -7.29,-2.47 -8.67,-5 v 0" /><path
         id="path22"
         style="fill:#231f20;fill-opacity:1;fill-rule:nonzero;stroke:none"
         d="m 1282.65,3916 c -107.84,-12.12 -238.27,-4.48 -328.318,-76.18 -46.859,-37.31 5.106,-90.44 38.262,-113.48 55.946,-38.89 128.776,-59.84 193.796,-77.49 71.11,-19.3 144.05,-31.32 216.75,-42.8 73.09,-11.53 145.96,-23.82 219.76,-29.87 152.74,-12.51 306.96,-3.92 458.83,14.76 56.48,6.95 112.72,15.76 168.74,25.73 57.2,10.18 110.99,33.66 164.98,54.19 37.83,14.37 115.69,26.78 131.35,72.83 18.68,54.97 -63.87,90.23 -101.42,104.81 -49.83,19.33 -103.98,32.5 -157.1,38.78 -2.69,0.32 -6.05,-5.31 -8.66,-5 71.4,-8.44 148.77,-27.4 210.86,-64.37 27.03,-16.09 53.97,-41.31 48.49,-75.55 -4.47,-27.98 -37.16,-39.37 -60.36,-47.75 -26.7,-9.66 -53.58,-18.32 -80.09,-28.58 -34.28,-13.26 -68.53,-26.39 -103.95,-36.32 -37.21,-10.44 -76.27,-15.29 -114.4,-21.23 -75.32,-11.74 -151.1,-20.48 -227.1,-26.28 -151.52,-11.55 -304.26,-9.1 -454.43,15.22 -84.23,13.65 -168.77,25.35 -252.14,43.82 -81.74,18.11 -168.18,42.61 -240.09,86.73 -24.754,15.19 -48.652,36.79 -59.199,64.41 -16.762,43.91 36.336,66.84 68.019,79.34 81.88,32.31 172.61,29.59 258.75,39.28 3.07,0.34 5.66,4.67 8.67,5 v 0" /><path
         id="path24"
         style="fill:#231f20;fill-opacity:1;fill-rule:nonzero;stroke:none"
         d="m 1346.8,3787.8 c -34.73,4.32 -95.76,-8.49 -69.72,-57.49 18.32,-34.49 65.66,-52.77 100.13,-64.7 47.02,-16.27 97.31,-21.85 145.53,-33.57 2.4,-0.58 6.38,5.55 8.67,5 -64.51,15.68 -131.33,22.3 -191.19,52.93 -25.9,13.26 -92.97,63.56 -45.48,92.71 -2.84,-1.63 -5.67,-3.26 -8.51,-4.9 16.48,7.85 34.16,7.23 51.9,5.02 2.69,-0.33 6.07,5.33 8.67,5 v 0" /><path
         id="path26"
         style="fill:#231f20;fill-opacity:1;fill-rule:nonzero;stroke:none"
         d="m 2021.38,4874.68 c 30.07,30.31 21.81,84.3 21.54,123.07 -0.44,60.39 -17.71,118.24 -52.08,168.01 -57.94,83.92 -154.36,98.92 -245.99,123.14 -77.35,20.45 -178.17,69.57 -180.81,162.72 -1.12,39.35 19.64,79.42 47.93,105.69 35.15,32.65 77.65,14.16 102.29,-19.96 0.25,-0.34 8.51,5.21 8.66,5 -22.36,30.97 -56.23,48.32 -92.31,28.3 -25.34,-14.06 -44.35,-33.19 -58.33,-58.86 -51.16,-93.9 29.19,-179.07 113.77,-212.08 91.59,-35.74 197.22,-34.89 270.63,-108.32 46.51,-46.53 71.03,-110.75 76.71,-175.43 3.72,-42.47 12.05,-113.3 -20.68,-146.28 2.26,2.27 6.39,2.71 8.67,5 v 0" /><path
         id="path28"
         style="fill:#231f20;fill-opacity:1;fill-rule:nonzero;stroke:none"
         d="m 2428.01,3646.37 c -29.19,-6.36 -58.77,-10.63 -88.06,-16.49 -31.81,-6.36 -61.71,-18.49 -92.35,-28.77 -39.85,-13.36 -75.56,-31.29 -111.37,-53.02 -105.9,-64.27 -223.53,-89.09 -346.13,-97.48 -118.96,-8.15 -240.9,2.87 -352.84,45.83 -50.38,19.33 -90.94,56.85 -135.65,86.25 -47.04,30.92 -99.39,57.07 -156.64,58.85 -8.61,0.27 -17.61,-15.26 -25.98,-15 57.64,-1.79 109.06,-28.3 156.64,-58.85 45.37,-29.15 85.2,-66.01 135.65,-86.25 111.04,-44.53 234.57,-53.14 352.84,-45.83 110.56,6.83 223.69,27.91 321.6,81.74 45.1,24.79 86.58,52.24 135.9,68.76 27.86,9.34 55.07,20.11 83.72,26.9 31.91,7.57 64.64,11.37 96.69,18.36 9.37,2.05 16.74,12.99 25.98,15 v 0" /><path
         id="path30"
         style="fill:#231f20;fill-opacity:1;fill-rule:nonzero;stroke:none"
         d="m 1430.56,3803.54 c 35.61,15.2 82.35,7.75 120.33,8.64 55.81,1.33 111.59,3.78 167.39,5.59 88.64,2.88 179.9,8.04 268.48,1.4 32.15,-2.42 166.87,-22.46 139.06,-81.14 -12.51,-26.37 -49.21,-39.96 -73.87,-50.7 -20.79,-9.04 -42.39,-16.01 -63.24,-24.88 -1.52,-0.65 -2.81,-1.85 -4.33,-2.5 37.28,15.87 75.7,27.92 110.65,48.9 16.66,10 38.37,24.54 38.65,46.14 0.42,32.56 -56.71,50.12 -80.15,56.64 -43.36,12.07 -89.9,12.42 -134.56,12.13 -49.03,-0.33 -98.14,-1.12 -147.16,-2.14 -62.33,-1.3 -124.62,-4.17 -186.94,-6.11 -27.59,-0.87 -55.22,-1.93 -82.83,-1.57 -22.49,0.29 -46.09,1.09 -67.16,-7.9 -1.52,-0.65 -2.81,-1.85 -4.32,-2.5 v 0" /><path
         id="path32"
         style="fill:#611215;fill-opacity:1;fill-rule:nonzero;stroke:none"
         d="m 1403.77,3919.21 c 199.04,16.57 400.53,22.77 598.96,-4.11 2.66,-0.36 6.09,5.35 8.66,5 -198.43,26.88 -399.92,20.68 -598.95,4.11 -3.04,-0.26 -5.69,-4.76 -8.67,-5 v 0" /><path
         id="path34"
         style="fill:#ee2a34;fill-opacity:1;fill-rule:nonzero;stroke:none"
         d="m 1795.79,4656.04 c -84.11,0 -170.25,-4.1 -252.3,-16.41 -53.34,-8.2 -84.11,-30.77 -18.46,-43.08 63.58,-12.31 129.22,-16.4 192.81,-22.56 22.56,0 324.1,-16.41 301.53,32.82 -12.31,26.67 -100.51,36.93 -125.12,38.97 -26.68,4.1 -116.93,24.62 -135.38,8.21" /><path
         id="path36"
         style="fill:#611215;fill-opacity:1;fill-rule:nonzero;stroke:none"
         d="m 1800.12,4658.54 c -78.24,-0.14 -156.38,-3.66 -234.01,-13.81 -24.02,-3.14 -64.78,-6.36 -81.58,-28.77 -11.92,-15.92 49.37,-24.33 54.39,-25.21 39.57,-6.94 79.7,-10.61 119.68,-14.25 33.24,-3.02 65.96,-5.4 99.27,-6.39 73.23,-2.17 150.54,-6.36 222.75,8.3 13.96,2.84 28.48,7.95 39.72,17.07 26.72,21.66 -50.99,41.75 -60.32,43.82 -41.05,9.11 -84.52,13.98 -126.16,19.97 -26.51,3.81 -56.35,8.78 -79.32,-7.78 2.68,1.93 5.96,3.06 8.66,5 0.75,0.54 1.49,1.08 2.24,1.62 -2.83,-1.64 -5.66,-3.28 -8.5,-4.92 32.29,15.81 84.8,-1.21 118.05,-7.3 34.91,-6.4 70.01,-8.22 104.18,-18.91 10.7,-3.35 53,-27.09 32.33,-36.87 -23.45,-11.1 -53.25,-11.85 -78.61,-13.68 -63.71,-4.59 -127.92,-2.67 -191.69,-0.5 -40.11,1.36 -80.14,5.9 -120.05,10.02 -33.7,3.47 -67.35,7.99 -100.52,14.93 -14.2,2.97 -40.64,12.69 -19.86,26.99 -2.68,-1.57 -5.37,-3.12 -8.06,-4.69 39.58,21.83 95.11,20.79 138.98,24.46 53.12,4.44 106.48,5.8 159.77,5.9 2.92,0.01 5.81,5 8.66,5 v 0" /><path
         id="path38"
         style="fill:#ffffff;fill-opacity:1;fill-rule:nonzero;stroke:none"
         d="m 1963.98,4498.1 c -43.07,-75.9 -59.49,-162.05 -28.72,-246.15 18.47,-51.28 61.54,-88.2 84.11,-137.43 8.2,-16.41 24.61,-53.33 -8.21,-49.23 -18.45,0 -41.02,41.02 -51.28,55.38 -41.02,61.54 -73.84,125.13 -75.9,201.03 -2.05,57.43 18.47,184.59 92.31,196.91 2.05,-16.41 -14.35,-28.72 -24.62,-41.03" /><path
         id="path40"
         style="fill:#ffffff;fill-opacity:1;fill-rule:nonzero;stroke:none"
         d="m 1955.32,4493.1 c -44.34,-80.22 -60.77,-174.24 -22.81,-260.43 15.46,-35.11 42.68,-64.22 63.38,-96.17 9.11,-14.07 38.76,-58.15 20.85,-74.24 5.78,3.34 11.55,6.67 17.33,10 -19.83,-8.62 -33.95,8.62 -44.79,22.77 -15.95,20.81 -29.89,44.01 -43.33,66.45 -31.7,52.85 -52.93,111.15 -53.44,173.27 -0.34,40.78 7.69,82.8 22.89,120.58 7.88,19.59 19.28,37.73 35.05,51.86 4.67,4.19 17.31,11.51 17,-0.37 -0.34,-12.92 -16.65,-25.48 -24.44,-34.24 4.18,4.69 13.09,5.24 17.33,10 8.05,9.06 16.4,17.27 22.42,27.88 10.14,17.85 -6.74,11.48 -16.26,7.27 -7.05,-3.11 -13.8,-7.54 -20.4,-11.5 -33.29,-19.99 -48.95,-57.5 -58.99,-93.39 -30.2,-107.91 4.4,-210.54 66.32,-300.37 16.17,-23.46 35.87,-66.04 69.72,-46.62 8.85,5.08 15.74,7.76 16.29,19.25 0.98,20.08 -16.43,45.43 -26.23,61.4 -14.75,24.04 -33.06,45.78 -48.49,69.39 -18.51,28.34 -28.66,60.18 -34.02,93.41 -10.84,67.24 9.64,135.35 41.95,193.8 -2.73,-4.93 -14.52,-4.94 -17.33,-10 v 0" /><path
         id="path42"
         style="fill:#cacbcc;fill-opacity:1;fill-rule:nonzero;stroke:none"
         d="m 1084.01,3841.71 c 16.41,-34.87 6.16,-61.55 10.26,-98.46 6.15,-61.54 65.63,-69.74 116.92,-77.95 45.12,-4.1 188.71,0 180.5,61.54 -8.19,61.53 -104.61,65.64 -149.73,77.95 -61.54,12.3 -75.9,38.97 -112.82,88.2 -32.82,43.08 -84.09,77.94 -133.324,96.4 -25.074,9.4 -55.136,23.14 -82.539,18.94 -12.265,-1.87 -57.332,-6.53 -41.984,-23.46 9.227,-10.18 39.902,-9.8 52.762,-11.85 39.715,-6.33 61.343,-17.17 91.795,-43.02 28.66,-24.34 52.14,-54.26 68.16,-88.29" /><path
         id="path44"
         style="fill:#231f20;fill-opacity:1;fill-rule:nonzero;stroke:none"
         d="m 1079.68,3839.21 c 22.01,-52.23 -10.77,-120.24 46.81,-154.83 35.49,-21.32 84.61,-23.54 125.02,-22.48 39.6,1.05 160.75,9.79 142.27,77.44 -11.77,43.1 -73.73,52.81 -110.18,60.01 -48.27,9.53 -89.28,19.14 -121.85,58.61 -18.44,22.35 -33.83,46.35 -54.59,66.79 -24.73,24.36 -54.7,43.28 -85.85,58.25 -40.29,19.35 -98.806,43.17 -142.357,18.7 -5.637,-3.17 -13.965,-6.15 -15.125,-13.19 -2.922,-17.64 60.485,-18.68 70.879,-20.78 65.25,-13.17 116.853,-71.19 144.973,-128.52 -0.07,0.13 8.79,4.73 8.66,5 -24.08,49.1 -63.37,94.66 -113.434,118.44 -21.258,10.09 -44.886,12.8 -67.992,14.99 -8.473,0.81 -47.758,8.04 -29.949,22.92 -2.461,-1.43 -4.918,-2.87 -7.375,-4.3 44.656,25.1 101.344,0.52 143.06,-18.26 56.64,-25.49 96.27,-66.75 132.93,-115.42 28.27,-37.54 59.29,-53.25 104.69,-63.32 39.31,-8.72 82.66,-12.38 115.64,-37.73 31.02,-23.84 27.31,-64.2 -8.72,-78.75 -35.75,-14.44 -77.69,-16.23 -115.78,-16.1 -38.41,0.12 -83.44,6.44 -115.55,28.7 -47.15,32.69 -18.15,102.86 -37.52,148.83 0.13,-0.31 -8.85,-4.55 -8.66,-5" /><path
         id="path46"
         style="fill:#ffffff;fill-opacity:1;fill-rule:nonzero;stroke:none"
         d="m 1136.31,3719.66 c -17.42,4.11 -15.38,33.84 -7.17,44.1 14.36,18.46 49.23,18.46 70.77,19.49 41.02,2.05 104.62,1.02 137.42,-27.69 55.39,-48.21 -47.17,-62.57 -77.94,-61.54 -24.62,1.02 -50.25,-1.03 -74.86,2.05 -10.26,1.03 -21.54,3.08 -29.75,7.18 -11.28,5.12 -17.44,15.38 -27.69,20.52" /><path
         id="path48"
         style="fill:#ffffff;fill-opacity:1;fill-rule:nonzero;stroke:none"
         d="m 1140.64,3722.16 c -22.56,9.08 -13.69,40.48 1.56,51.88 -2.83,-1.64 -5.66,-3.28 -8.49,-4.92 35.45,19.25 91.34,14.24 130.06,9.81 24.16,-2.76 94.93,-19.89 84.28,-57.38 -6.39,-22.5 -56.32,-23.94 -74.66,-24.93 -24.78,-1.35 -50.5,-0.42 -75.26,1.02 -13.46,0.78 -26.53,3.03 -39.02,8.11 -10.51,4.28 -18.16,14.51 -27.69,20.52 -1.37,0.86 -7.4,-5.8 -8.66,-5 14.78,-9.32 24.29,-20.47 41.8,-25.26 19.83,-5.44 42.14,-4.27 62.49,-4.2 26.46,0.09 51.31,-0.45 77.32,5.18 18.98,4.12 62.68,18.43 50.66,45.43 -12.83,28.82 -55.24,37.6 -82.59,41.51 -32.46,4.64 -67.1,3.32 -99.62,-0.34 -14.36,-1.61 -26.57,-6.9 -38.7,-14.18 -17.01,-10.22 -23.88,-43.51 -2.14,-52.25 1.97,-0.79 6.81,5.75 8.66,5 v 0" /><path
         id="path50"
         style="fill:#ffffff;fill-opacity:1;fill-rule:nonzero;stroke:none"
         d="m 1122.19,3810.87 c 5.53,9.67 24.66,31.39 16.96,43.08 -4.05,6.13 -19.2,3.47 -24.66,3.08 2.61,0.18 6.79,21.34 6.51,24.93 -0.33,3.99 -7.43,2.94 -9.71,2.83 -4.59,-0.22 -9.21,-0.84 -13.79,-1.23 -10.18,-0.86 -4.98,3.64 -2.95,10.74 1.72,6.04 4.31,12.97 1.92,19.1 -1.33,3.43 -20.57,-2.75 -18.96,0.53 3.65,7.43 2.73,14.77 -3.46,20.01 -11.3,9.55 -24.06,-8.02 -17.56,12.26 4.76,5.04 3.12,7.02 -4.92,5.96 -6.9,1.19 -16.81,-3.26 -23.38,-4.98 -16.84,-4.4 -0.19,7.66 3.28,11.38 10.81,11.55 -0.09,7.02 -9.2,6.06 -5.16,-1.05 -10.37,-1.78 -15.61,-2.17 -13.476,-1.43 -4.98,3.53 -1.81,8.83 3.81,6.35 -0.71,10.56 -6.291,12.64 -11.848,4.43 -29.618,0.57 -40.981,-3.82 -3.082,-1.19 -5.601,-3.81 -8.66,-5 12.625,4.88 27.715,6.72 40.98,3.82 5.145,-1.12 7.661,-4.35 7.438,-9.4 -0.188,-4.09 -4.578,-8.48 -6.883,-11.35 -0.031,-0.04 21.427,1.15 23.147,1.45 5.1,1.06 10.2,1.09 15.31,0.09 -3.2,0.31 -14.83,-15.91 -16.92,-18.45 1.5,1.82 20.12,4.2 23.15,4.98 6.12,1.59 17.94,4.3 12.69,-5.04 -9,-16.02 6.9,-7.73 17.57,-12.26 10.59,-4.51 3.63,-19.64 0.43,-26.15 0.06,0.03 0.11,0.06 0.17,0.08 25.54,13.53 24.34,2.04 18.34,-19 -4.64,-16.27 26.94,6.15 28.16,-8.99 0.57,-7.07 -4.45,-16.44 -6.67,-22.85 1.48,4.29 21.55,-0.93 24.65,-3.08 9.83,-6.83 -13.57,-37.17 -16.95,-43.08 1.41,2.47 7.21,2.48 8.66,5 v 0" /><path
         id="path52"
         style="fill:#ad1c22;fill-opacity:1;fill-rule:nonzero;stroke:none"
         d="m 1514.41,2265.04 c -12.31,89.23 252.3,80 304.61,83.09 98.45,3.07 379.49,21.53 296.41,-141.55 -52.3,-101.53 -62.56,-224.61 2.05,-335.37 52.3,-92.32 70.76,-129.22 123.05,-221.54 v -3.07 c 64.62,-70.77 43.61,-225.12 12.84,-314.36 -43.58,-103.04 -145.33,-172.79 -280.71,-178.94 -55.39,-3.09 -141.33,-8.22 -193.64,1 -73.84,12.32 -153.85,18.47 -224.61,40 -135.38,43.08 -258.46,135.38 -258.46,283.08 0,144.61 89.23,261.52 172.3,372.28 89.24,126.16 9.24,267.69 43.08,406.16 3.08,9.22 3.08,18.45 9.23,24.62" /><path
         id="path54"
         style="fill:#ad1c22;fill-opacity:1;fill-rule:nonzero;stroke:none"
         d="m 1516.57,2266.29 c -3.84,37.48 36.38,52.23 66.16,60.47 40.19,11.14 82.7,14.39 124.16,16.77 64.03,3.67 128.89,5.13 193.03,5.51 65.2,0.38 160.13,3.28 210.53,-46.14 24.59,-24.11 19.62,-58.93 7.46,-87.82 -12.08,-28.65 -25.73,-55.39 -34.41,-85.47 -9.82,-34.06 -13.61,-69.56 -12.94,-104.91 1.42,-75.67 35.2,-137.25 71.05,-201.56 30.83,-55.3 60.84,-111.06 91.95,-166.22 10.34,-18.34 23.24,-35.75 31.43,-56.03 10.43,-25.82 13.87,-54.26 15.29,-81.85 2.86,-55.7 -6.78,-112.51 -22.05,-165.92 -34.93,-122.25 -154.96,-189.29 -275.64,-198.14 -136.87,-10.05 -275.67,1.35 -408.86,35.69 -91.32,23.54 -183.23,75.21 -236.37,154.86 -60.31,90.39 -42.54,205.28 -0.51,299.15 23.46,52.43 56.06,100.47 89.54,146.9 34.86,48.36 70.21,90.78 82.59,150.7 11.36,54.95 3.37,112.6 -1.22,167.84 -2.49,29.91 -3.9,59.81 -2.5,89.81 1.17,24.88 2.78,60.77 17.46,81.76 -0.85,-1.23 -3.45,-1.25 -4.32,-2.5 -16.26,-23.23 -16.57,-62.56 -17.85,-89.94 -1.65,-35.33 1.91,-70.85 4.95,-106 5.8,-67.02 9.59,-134.17 -17.78,-197.31 -13.35,-30.81 -36.19,-56.74 -55.94,-83.54 -21.21,-28.76 -41.62,-58.09 -60.51,-88.43 -35.93,-57.71 -63.56,-120.41 -73.93,-187.92 -18.91,-123.01 43.81,-223.21 146.98,-285.38 54.72,-32.97 115.75,-52.4 178.19,-64.27 68.46,-13.02 140.6,-25.84 210.31,-28.26 102.31,-3.55 214,-1.01 304.49,51.95 39.61,23.18 72.67,55.13 97.52,93.68 28.91,44.81 39.53,99.86 46.3,152.01 7.03,54.04 6.62,112.01 -14.05,163.17 -8.48,20.98 -22.9,39.32 -33.81,58.66 -16.48,29.22 -32.66,58.6 -48.78,88.02 -32.34,59.04 -72.06,117.35 -93.85,181.23 -22.38,65.63 -19.58,137.11 -0.55,203.07 12.42,43.06 49.27,87.28 41.46,134.12 -5.07,30.46 -34.45,47.66 -60.84,57.56 -70.04,26.25 -152.42,21.14 -225.83,18.59 -68.48,-2.37 -137.25,-1.63 -205.3,-10.74 -36.56,-4.88 -121.47,-16.14 -127.62,-66.48 -0.37,-3.05 -0.03,-6.15 0.29,-9.19 -0.07,0.65 4.4,1.79 4.32,2.5 v 0" /><path
         id="path56"
         style="fill:#ee2a34;fill-opacity:1;fill-rule:nonzero;stroke:none"
         d="m 1815.95,2320.43 c -65.64,-2.05 -131.28,-8.2 -194.86,-18.45 -28.73,-6.16 -73.84,-8.21 -94.36,-32.82 16.41,-16.43 51.29,-16.43 75.9,-18.46 65.63,-8.22 131.26,-6.16 196.92,-4.12 50.88,1.6 101.77,4.11 152.47,8.89 20.93,1.99 155.08,11.9 150.63,44 -2.86,20.56 -44.61,24.03 -58.91,25.07 -33.87,2.41 -66.38,-0.2 -100.22,-1.61 -42.46,-1.76 -84.98,-1.17 -127.57,-2.5" /><path
         id="path58"
         style="fill:#611215;fill-opacity:1;fill-rule:nonzero;stroke:none"
         d="m 1820.28,2322.93 c -71.4,-2.45 -142.06,-9.78 -212.48,-21.66 -29.19,-4.93 -58.12,-10.96 -81.28,-30.26 -14.83,-12.36 50.51,-21.29 58.75,-21.88 37.25,-2.69 74.06,-6.4 111.48,-6.84 77.19,-0.92 154.99,2.76 231.92,9 53.66,4.34 121.14,3.78 167.36,34.56 37.65,25.05 -30.06,39.82 -47.96,41.19 -36.61,2.8 -73.43,-0.62 -110.02,-1.98 -39.24,-1.46 -78.53,-1.03 -117.77,-2.13 -2.97,-0.09 -5.77,-4.93 -8.66,-5 60.74,1.7 121.46,2.94 182.19,4.87 20.22,0.63 103.27,6.58 104.59,-28.09 0.81,-21.23 -58.8,-26.44 -72.57,-28.7 -29.29,-4.78 -58.95,-7.18 -88.51,-9.72 -120.93,-10.42 -243.64,-13.58 -364.4,-0.28 -11.27,1.25 -21.94,4.03 -32.25,8.71 -18.77,8.55 0.86,16.94 13.03,21.51 20.04,7.55 42.19,9.08 63.06,13.25 63.54,12.71 130.24,16.24 194.86,18.45 2.97,0.09 5.75,4.9 8.66,5" /><path
         id="path60"
         style="fill:#231f20;fill-opacity:1;fill-rule:nonzero;stroke:none"
         d="m 2217.74,2441 c -46.84,-78.64 -84.4,-163.45 -101.15,-253.84 -17.23,-92.98 -1.87,-193.6 21.65,-284.19 26.05,-100.27 84.63,-183.69 123.36,-278.35 17.92,-43.8 27.32,-90.76 32.36,-137.64 5.24,-48.78 -8.32,-96.44 -14.68,-144.41 0.26,1.96 8.39,2.93 8.66,5 6,45.21 17.4,89.23 15.43,135.16 -2.01,46.93 -13.97,94.65 -29.92,138.61 -16.96,46.74 -43.94,89.78 -66.36,134.02 -23.53,46.43 -43.55,93.96 -57.86,144.06 -25.76,90.25 -39.42,191.04 -25.39,284.33 14,93.12 54.75,181.96 102.57,262.25 -1.47,-2.47 -7.16,-2.47 -8.67,-5 v 0" /><path
         id="path62"
         style="fill:#231f20;fill-opacity:1;fill-rule:nonzero;stroke:none"
         d="m 1604.89,2486 c -45.25,7.02 -92.73,-1.29 -136.42,-13.45 -11.83,-3.29 -30.17,-10.83 -37.48,-21.65 -14.16,-20.97 50.52,-39.33 60.64,-42.14 52.67,-14.61 110.64,-18.81 164.9,-23.64 58.81,-5.23 118.58,-7.9 177.54,-4.69 54.1,2.94 108.15,9.37 162.11,14.3 72.9,6.65 145.18,19.05 207,60.28 0.05,0.03 0.1,0.06 0.15,0.09 -53.97,39.82 -118.72,43.08 -183.37,45.24 -61.04,2.03 -119.81,7.76 -173.51,39.23 -93.63,54.87 -126.59,172.62 -90.08,272.09 14.46,39.42 38.71,75.55 64.65,108.24 31.13,39.23 70.37,78.63 116.85,98.78 86.38,37.43 156.51,-37.67 158.69,-122.44 0.78,-30.43 -6.36,-61.73 -21.66,-88.09 -13.45,-23.19 -43.12,-41.76 -70.43,-32.49 -40.18,13.62 5.6,90.79 20.92,107.25 -2.15,-2.31 -6.47,-2.65 -8.66,-5 -20.77,-22.33 -40.8,-60.56 -33.76,-91.91 6.96,-30.99 51.27,-13.87 68.7,-3.74 76.4,44.39 64.1,165.92 11.4,222.71 -46.83,50.47 -115.3,25.94 -163.89,-7.58 -68.38,-47.17 -129.71,-122.69 -155.49,-202.34 -33.53,-103.62 10.51,-214.76 105.39,-266.89 54.56,-29.97 117.15,-31.26 177.75,-33.35 30.71,-1.05 61.25,-3.1 91.35,-9.61 14.86,-3.21 29.11,-8.44 42.96,-14.62 7.11,-3.16 13.77,-7.21 20.4,-11.24 20.42,-12.41 -6.76,-21.07 -17.59,-25.97 -58.81,-26.66 -126.34,-30.9 -189.77,-36.33 -74.99,-6.43 -148.97,-15.08 -224.39,-11.84 -78.31,3.37 -156.03,10.94 -233.23,24.83 -15.71,2.82 -109.4,29.67 -66.77,54.92 -2.48,-1.42 -4.94,-2.83 -7.41,-4.24 44.09,21.08 105.87,27.73 153.85,20.29 2.61,-0.4 6.14,5.39 8.66,5 v 0" /><path
         id="path64"
         style="fill:#231f20;fill-opacity:1;fill-rule:nonzero;stroke:none"
         d="m 1762.83,2571.14 c -91.48,94.33 -76.53,223.69 -31.95,336.86 23.94,60.79 59.75,115.79 81.77,177.41 21.18,59.3 35.88,138.07 5.55,196.74 -38.15,73.82 -153.65,115.66 -226.88,72.41 -76.09,-44.95 -93.24,-156.74 -30.75,-220.81 11.64,-11.94 26.41,-20.14 41.81,-26.1 2,-0.78 6.77,5.73 8.66,5 -103.54,40.09 -103.94,191.56 -12.89,245.78 -2.69,-1.54 -5.39,-3.09 -8.08,-4.64 67.12,31.38 149.59,2.64 198.81,-48.33 64.87,-67.21 34,-181.71 2.66,-257.3 -16.78,-40.47 -39.81,-78.04 -57.82,-117.98 -18.15,-40.24 -32.5,-82.19 -41.31,-125.47 -17.67,-86.83 -1.04,-173.81 61.76,-238.57 0.62,-0.64 8.14,5.53 8.66,5 v 0" /><path
         id="path66"
         style="fill:#231f20;fill-opacity:1;fill-rule:nonzero;stroke:none"
         d="m 1743.92,2354.85 c 14.43,-52.81 14.59,-106.98 13.6,-161.33 -1.02,-56.1 0.36,-110.36 9.83,-165.78 7.94,-46.47 20.97,-91.91 40.87,-134.7 9.24,-19.86 20.59,-38.65 32.92,-56.73 7.14,-10.45 15.04,-20.39 23.08,-30.15 4.03,-4.89 21.23,-19.03 21.23,-24.77 0,1.6 8.66,3.27 8.66,5 0,0.38 0,0.77 0,1.15 -2.88,-1.67 -5.78,-3.33 -8.66,-5 0.46,-0.45 0.91,-0.9 1.37,-1.36 0.67,-0.67 8.1,5.56 8.66,5 -0.46,0.46 -0.91,0.91 -1.37,1.36 -0.08,0.08 -8.66,-4.45 -8.66,-5 0,-1.02 0,-2.04 0,-3.06 0,1.6 8.66,3.27 8.66,5 0,1.02 0,2.04 0,3.06 0,-1.67 -8.5,-3.16 -8.66,-5 0.38,-3.51 -0.65,-6.59 -3.08,-9.21 1.44,2.47 7.19,2.47 8.67,5 2.42,2.62 3.44,5.7 3.07,9.21 -2.88,-1.67 -5.78,-3.33 -8.66,-5 0,-1.02 0,-2.04 0,-3.06 0,1.6 8.66,3.27 8.66,5 0,1.02 0,2.04 0,3.06 -2.88,-1.67 -5.78,-3.33 -8.66,-5 0.46,-0.45 0.91,-0.9 1.37,-1.36 2.89,1.67 5.77,3.34 8.66,5 -0.46,0.46 -0.91,0.91 -1.37,1.36 -0.08,0.08 -8.66,-4.45 -8.66,-5 0,-0.38 0,-0.77 0,-1.15 0,1.6 8.66,3.27 8.66,5 0,4.39 -13.02,15.28 -16.16,18.82 -8.46,9.58 -16.25,19.73 -23.82,30.01 -13.05,17.71 -24.13,36.76 -34.09,56.34 -21.29,41.82 -33.82,87.56 -42.63,133.46 -10.51,54.69 -12.45,108.87 -11.4,164.42 1.08,57.35 1.81,114.62 -13.43,170.41 0.21,-0.74 -8.9,-4.11 -8.66,-5 v 0" /><path
         id="path68"
         style="fill:#611215;fill-opacity:1;fill-rule:nonzero;stroke:none"
         d="m 1886.7,1772.75 c 49.24,21.53 123.08,70.76 181.54,43.08 61.54,-27.7 83.07,-153.85 92.3,-215.38 3.08,-36.92 6.16,-70.77 15.39,-107.7 9.23,-30.76 30.77,-64.61 30.77,-95.37 3.07,-70.77 -80.01,-64.62 -129.23,-83.08 -70.77,-21.54 -138.47,-43.07 -212.31,-46.15 -27.68,0 -76.91,0 -98.45,21.54 -30.77,27.69 -12.31,67.7 -9.23,104.61 2.79,61.22 -3.85,118.82 -29.49,174.64 -10.37,22.57 -27.36,40.24 -37.21,63.31 -6.25,14.6 -4.11,28.97 -5.01,43.92 -0.53,8.65 -2.31,15.02 -1.04,24 5.69,40.46 46.54,41.86 80.4,46.48 41.12,5.63 83.47,8.06 121.57,26.1" /><path
         id="path70"
         style="fill:#231f20;fill-opacity:1;fill-rule:nonzero;stroke:none"
         d="m 1882.37,1770.25 c 52.33,23.5 108.27,62.14 168.31,48.01 47.63,-11.21 68.83,-67.72 81.88,-108.93 16.16,-51.02 22.06,-103.48 27.95,-156.37 3.88,-34.9 11.55,-66.97 25.28,-99.22 11.58,-27.24 22.8,-56.68 12.46,-86.09 -14.4,-40.93 -82.25,-38.77 -116.45,-50.85 -67.85,-23.97 -144.97,-46.21 -217.41,-46.15 -53.99,0.05 -116.19,9.01 -110.04,77.22 2.89,32.08 8.7,61.58 7.64,94.2 -1.26,38.59 -9.04,76.45 -22.54,112.57 -12.72,34.05 -42.86,61.3 -48.55,97.57 -4.4,28.05 -7.69,64.39 18.27,82.42 -2.69,-1.55 -5.37,-3.11 -8.06,-4.67 22.99,12.68 51.86,13.27 77.37,16.46 35.7,4.47 70.7,9.17 103.89,23.83 3.04,1.34 5.64,3.66 8.67,5 -33.17,-14.65 -68.2,-19.43 -103.9,-23.83 -23.42,-2.89 -52.2,-3.02 -73.52,-14.31 -4.32,-2.3 -9.07,-4.66 -13.11,-7.48 -27.64,-19.19 -19.78,-53.14 -18.26,-82.42 1.66,-32.12 32.51,-60.6 45.12,-89.16 15.6,-35.32 22.66,-73.78 25.49,-112.08 2.42,-32.92 -1.04,-63.85 -6.25,-96.19 -4.82,-29.89 1.49,-56.75 29.49,-72.1 21.58,-11.82 50.25,-11.65 74.14,-11.99 36.72,-0.53 73.44,6.06 109.14,14.04 59.07,13.21 116.19,33.52 175.12,47.33 23.18,5.43 49.04,15.01 65.28,33.46 16.21,18.42 12.23,47.05 6.12,68.45 -10.07,35.27 -26.7,65.68 -33.04,102.41 -14.36,83.02 -14.43,168.84 -57.51,244.3 -52.91,92.67 -152.91,31.63 -224.31,-0.43 -3.04,-1.36 -5.65,-3.64 -8.67,-5" /><path
         id="path72"
         style="fill:#231f20;fill-opacity:1;fill-rule:nonzero;stroke:none"
         d="m 1350.65,2448.31 c 41.54,-55.35 79.97,-112.87 107.96,-176.38 27.86,-63.21 39.12,-129.98 39.78,-198.72 0.66,-68.31 -9.01,-137.51 -31.47,-202.11 -21.25,-61.15 -58.44,-116.63 -91.22,-172 -62.85,-106.18 -126.67,-231.52 -71.97,-354.81 44.21,-99.65 159.05,-142.07 255.76,-171.4 86.05,-26.11 172.97,-42.62 262.79,-47.76 83.57,-4.78 171.6,-2.92 251.43,24.75 9.31,3.23 16.74,11.8 25.98,15 -62.61,-21.7 -129.54,-26.47 -195.37,-26.43 -69.88,0.03 -139.98,6.78 -208.44,20.75 -109.13,22.25 -237.96,55.59 -320.36,135.36 -92.36,89.39 -74.13,221.89 -24.02,327.78 28.55,60.34 65.78,116.19 98.6,174.21 33.03,58.37 55.54,118.16 66.35,184.5 13.53,83.13 11.78,171.14 -12.07,252.15 -24.96,84.82 -75.2,160.09 -127.75,230.11 -0.86,1.14 -25.4,-15.78 -25.98,-15 v 0" /><path
         id="path74"
         style="fill:#231f20;fill-opacity:1;fill-rule:nonzero;stroke:none"
         d="m 1752.8,2383.82 c -23.12,56.12 -76.19,93.21 -137.83,86.75 -42.26,-4.42 -80.75,-34.46 -100.44,-70.81 -19.98,-36.88 -21.2,-82.25 -21.58,-123.15 -0.44,-48.01 2.98,-95.86 1.19,-143.88 -1.83,-49.32 -8.47,-98.23 -20.97,-145.98 -13.08,-49.97 -32.78,-103.38 -60.31,-147.14 1.55,2.46 7.07,2.48 8.66,5 23.37,37.16 38.96,80.28 52.8,121.82 13.75,41.27 21.22,84.36 25.55,127.53 8.69,86.53 -6.81,174.5 7.11,260.41 9.79,60.41 49.5,110.55 113.78,112.14 56.03,1.39 102.85,-37.85 123.38,-87.69 -0.14,0.35 8.86,4.53 8.66,5 v 0" /><path
         id="path76"
         style="fill:#ffffff;fill-opacity:1;fill-rule:nonzero;stroke:none"
         d="m 1926.71,1981.97 c 3.07,-30.76 43.07,-141.52 86.16,-92.28 26.85,30.75 -3.9,84.41 -10.69,116.75 -8.63,41.15 12.39,83.81 2.13,123.87 -8.14,31.73 -48.35,39.63 -62.77,12.38 -7.24,-13.67 -8.69,-55.31 -12.05,-72.96 -5.54,-29.1 -7.42,-58.36 -2.78,-87.76" /><path
         id="path78"
         style="fill:#ffffff;fill-opacity:1;fill-rule:nonzero;stroke:none"
         d="m 1918.05,1976.97 c 3.12,-25.16 31.95,-122.47 72.28,-102.94 13.35,6.46 25.97,13.68 34.97,25.7 21.57,28.81 -4.93,77.31 -13.2,106.44 -12.03,42.43 9.71,86.13 0.87,129.14 -5.72,27.84 -35.15,33.91 -56.65,21.68 -19.19,-10.94 -26.13,-21.8 -29.66,-44.53 -6.9,-44.45 -14.6,-90.69 -8.61,-135.49 -0.32,2.37 17.67,7.34 17.32,10 -4.75,35.51 0.79,68.07 4.89,103.17 2.66,22.79 0.59,53.68 20.39,69.24 -5.66,-3.28 -11.33,-6.56 -17,-9.84 16.16,8.76 32.37,3.94 44.42,-8.97 16.48,-17.65 10.46,-51.35 7.7,-72.62 -3.43,-26.42 -6.8,-51.31 0.6,-77.38 6.16,-21.75 14.97,-42.23 18.14,-64.77 1.49,-10.6 -0.02,-20.75 -3.64,-30.69 -1.7,-3.81 -3.92,-7.28 -6.66,-10.42 -6.3,-8.41 2.89,-1.43 -3.81,-2.4 -13.16,-1.9 -24.5,11.43 -31.52,20.49 -17.7,22.82 -29.96,55.59 -33.51,84.19 0.3,-2.44 -17.66,-7.29 -17.32,-10" /><path
         id="path80"
         style="fill:#ffffff;fill-opacity:1;fill-rule:nonzero;stroke:none"
         d="m 1983.85,1809.36 c 4.29,-28.17 32.51,-69.57 49.04,-93.07 42.92,-61.1 111.22,-108.15 136.88,-180.46 12.31,-36.93 18.47,-76.92 12.31,-116.91 -3.08,-33.86 -30.77,-67.69 -33.85,-98.46 -3.07,-36.93 12.31,-46.15 43.08,-18.47 24.62,21.54 40,86.15 46.16,116.93 16.32,81.7 -5.14,144.73 -53.44,210.8 -37.53,51.32 -80,95.99 -110.49,152.3 -9.95,18.38 -20.38,70.37 -42.25,77.99 -28.53,9.92 -51.12,-26.46 -47.44,-50.65" /><path
         id="path82"
         style="fill:#ffffff;fill-opacity:1;fill-rule:nonzero;stroke:none"
         d="m 1975.19,1804.36 c 10.81,-54.49 56.2,-105.7 92.68,-145.33 45.81,-49.75 87.54,-95.16 102.68,-163.07 7.47,-33.51 8.03,-70.77 -2.01,-103.77 -9.45,-31 -29.85,-56.32 -29.22,-90.01 0.77,-41.22 45.81,-7.78 60.65,4.81 18.17,15.42 26.23,42.97 33.16,64.76 8.73,27.48 14.9,56.28 17.63,84.96 6.25,65.86 -20.49,125.68 -58.06,178.01 -38.28,53.3 -91.73,102.68 -115.87,164.74 -13.47,34.61 -25.46,83.94 -70.41,57.83 -19.9,-11.56 -33.02,-28.68 -31.23,-52.93 -0.2,2.76 17.54,6.97 17.32,10 -1.47,19.85 7.44,38.51 24.62,48.98 -5.67,-3.28 -11.35,-6.54 -17.02,-9.81 45.11,17.75 57.44,-64.34 73.37,-91.59 34.38,-58.82 83.88,-107.02 120.32,-164.44 33.85,-53.34 46.28,-112.88 36.56,-175.19 -7.38,-47.29 -20.31,-110.63 -64,-137.37 5.67,3.27 11.35,6.53 17.02,9.79 -16.97,-7.94 -24.84,0.06 -26.74,17.45 -2.9,26.62 13.29,52.31 23.62,75.61 23.84,53.75 13.7,122.25 -10.74,174.01 -22.73,48.15 -64.84,85.1 -99.72,124.2 -31.15,34.92 -67.99,81.47 -77.29,128.36 0.39,-1.96 -17.76,-7.75 -17.32,-10" /><path
         id="path84"
         style="fill:#ffffff;fill-opacity:1;fill-rule:nonzero;stroke:none"
         d="m 1305.19,1861.97 c 70.76,0 156.91,3.08 184.6,-64.6 v 0 c -18.46,-89.24 -55.38,-178.47 -61.54,-267.69 0,0 -3.06,0 -3.06,-3.07 -33.85,-12.32 -64.62,-6.16 -98.47,-3.08 -61.53,6.15 -73.84,3.08 -104.61,55.37 9.23,80.01 43.08,175.39 46.16,261.55 12.3,12.29 27.68,21.52 40,21.52" /><path
         id="path86"
         style="fill:#231f20;fill-opacity:1;fill-rule:nonzero;stroke:none"
         d="m 1296.52,1856.97 c 60.64,0.06 141.97,5.7 178.95,-53.06 10.55,-16.77 -0.65,-39.73 -5.28,-57.69 -6.38,-24.75 -13.63,-49.27 -20.58,-73.85 -13.71,-48.5 -25.95,-97.33 -30.02,-147.69 5.78,3.33 11.55,6.67 17.32,10 -6.45,-1.62 -17.09,-7.28 -20.39,-13.07 5.78,3.33 11.55,6.67 17.33,10 -43.28,-13.78 -90.96,-4.71 -135.2,0.65 -28.56,3.46 -45.14,16.48 -60.82,40.12 -11.65,17.58 -3.15,39.62 0.66,59.53 4.89,25.52 10.96,50.81 16.7,76.14 5.84,25.85 11.27,51.76 15.58,77.9 1.88,11.37 3.23,22.8 4.45,34.24 0.55,5.63 0.99,11.25 1.31,16.89 0.91,13.3 8.36,16.17 20.1,23.53 -5.68,-3.26 -11.36,-6.52 -17.03,-9.79 6.89,3.3 12.42,5.27 20,6.15 6.14,0.71 11.31,9.31 17.33,10 -13.2,-1.53 -23.67,-8.03 -34.83,-14.63 -8.32,-4.91 -15.35,-10.33 -22.5,-16.89 -2.15,-1.99 -1.41,-21.86 -1.7,-25.26 -0.76,-8.57 -1.96,-17.11 -3.14,-25.62 -9.8,-70.98 -32.47,-139.53 -41.31,-210.67 -0.82,-6.63 15.56,-23.78 19.9,-28.97 5.32,-6.39 11.85,-11.31 19.13,-15.21 17.05,-9.11 39.72,-8.72 58.43,-10.49 35.99,-3.4 70.42,-8.83 105.61,2.38 5.91,1.88 15.76,7.25 18.86,12.69 -5.78,-3.34 -11.55,-6.67 -17.32,-10 0.51,0.13 1.02,0.26 1.53,0.38 2.29,0.58 17.17,8.16 17.32,10 3.81,47.2 14.88,92.92 27.44,138.45 6.8,24.65 14,49.18 20.71,73.85 5.6,20.61 18.17,47.42 7.73,66.93 -32.04,59.89 -122.12,53.12 -178.94,53.06 -5.85,-0.01 -11.63,-9.99 -17.33,-10 v 0" /><path
         id="path88"
         style="fill:#231f20;fill-opacity:1;fill-rule:nonzero;stroke:none"
         d="m 2491.59,1425.66 c 30.1,5.05 62.51,1.34 92.46,-2.88 35.97,-5.07 75,-13.94 104.58,-36.12 31.85,-23.89 24.25,-60.18 0.68,-87.24 -26.21,-30.1 -65.68,-46.17 -101.71,-61.24 -36.89,-15.43 -74.34,-29.53 -112.05,-42.83 -73.96,-26.08 -149.18,-45.9 -226.38,-59.74 -78.03,-13.98 -157.04,-20.97 -235.25,-33.75 -79.56,-13.01 -157.59,-20.94 -238.25,-22.46 -79.3,-1.5 -157.3,4.74 -236.07,12.92 -114.09,11.86 -228.53,22.82 -340.41,49.1 -51.27,12.05 -100.46,29.68 -150.09,47 -43.87,15.31 -87.6,32.4 -122.108,64.51 -25.172,23.42 -46.902,60.04 -35.328,95.03 10.871,32.83 48.789,49.58 78.191,60.83 32.525,12.46 67.045,21.01 101.105,28.05 27.94,5.77 56.32,7.94 84.41,12.54 24.91,4.08 49.34,11.38 74.72,7.04 2.57,-0.44 6.18,5.42 8.66,5 -29.95,5.12 -59.61,-5.34 -89.15,-9.16 -35,-4.53 -69.45,-9.54 -103.73,-18.18 -36.74,-9.27 -74.124,-19.81 -107.315,-38.53 -23.938,-13.5 -47.828,-29.26 -56.883,-56.64 -16.363,-49.43 38.594,-97.68 75.183,-119.67 51.635,-31.01 115.895,-48.91 173.125,-66.51 71.93,-22.12 146.49,-35.01 220.93,-45.19 153.82,-21.05 308.95,-37.2 464.3,-31.84 73.91,2.55 145.59,14.25 218.5,25.72 75.03,11.82 150.6,18.74 225.36,32.57 70.88,13.11 139.79,32.71 207.82,56.36 57.9,20.13 117.36,41 171.2,70.67 28.8,15.87 58.51,34.68 74.6,64.26 16.06,29.53 0.87,56.5 -24.89,72.94 -29.13,18.57 -66.12,25.48 -99.77,30.22 -28.36,4 -59.3,7 -87.78,2.22 -3.11,-0.52 -5.61,-4.49 -8.66,-5 v 0" /><path
         id="path90"
         style="fill:#231f20;fill-opacity:1;fill-rule:nonzero;stroke:none"
         d="m 1111.67,1105.51 c 29.31,16.38 81,-7.23 109.41,-16.44 50.32,-16.3 101.4,-29.08 151.04,-47.63 56.66,-21.17 110.57,-48.702 167.07,-70.049 52.84,-19.961 108.17,-32.86 163.94,-41.243 114.08,-17.136 231.04,-11.109 344.4,8.223 111.37,18.969 215.27,56.57 320.75,95.419 9.27,3.41 16.77,11.61 25.97,15 -105.64,-38.91 -209.38,-75.731 -320.73,-95.419 -116.14,-20.562 -235.67,-24.562 -352.44,-7.019 -55.82,8.39 -110.63,22.929 -163.41,42.867 -56.77,21.461 -111.01,49.081 -167.97,70.361 -48.69,18.19 -99.1,30.39 -148.48,46.38 -30.32,9.83 -76.47,29.8 -107.19,12.64 -5.97,-3.34 -11.9,-6.76 -17.8,-10.22 -0.68,-0.4 -9.4,-5.57 -4.56,-2.87 v 0" /><path
         id="path92"
         style="fill:#231f20;fill-opacity:1;fill-rule:nonzero;stroke:none"
         d="m 2299.35,1365.28 c 31.9,3.63 82.89,-2.9 97.27,-36.44 11.56,-26.94 -21.04,-51.76 -39.77,-63.75 19.81,12.68 -7.64,-2.9 -13.87,-5.69 -7.98,-3.56 -16.1,-6.79 -24.25,-9.95 -17.55,-6.83 -35.46,-12.73 -53.42,-18.37 -22.91,-7.21 -46.77,-12.46 -69.21,-21.05 -9.25,-3.55 -16.8,-11.49 -25.98,-15 64.43,24.67 130.67,37.33 191.29,72.33 24.07,13.9 55.53,29.8 62.3,59.32 10.8,47.07 -68.04,57.06 -98.38,53.6 -9.2,-1.05 -16.97,-13.98 -25.98,-15 v 0" /><path
         id="path94"
         style="fill:#231f20;fill-opacity:1;fill-rule:nonzero;stroke:none"
         d="m 1297.1,1310.44 c -30.96,4.1 -66.33,4.09 -94.13,-12.17 -39.36,-23.04 2.9,-51.61 27.89,-64.31 123.49,-62.73 266.84,-73.33 402.41,-86.02 1.37,-0.13 2.99,2.62 4.32,2.5 -114.35,10.71 -230.07,20.95 -339.16,59.23 -26.69,9.38 -53.23,20.79 -77.92,34.6 -13.07,7.33 -29.4,18.75 -30.46,35.11 -2.39,36.86 82.77,31.2 102.72,28.56 1.33,-0.18 3.05,2.66 4.33,2.5 v 0" /><path
         id="path96"
         style="fill:#ad1c22;fill-opacity:1;fill-rule:nonzero;stroke:none"
         d="m 4155.29,4682.27 c 75.97,5.1 308.22,10.26 330.17,-93.72 11.21,-53.11 -25.72,-104.53 -41.28,-153.16 -19.3,-60.35 -36.99,-112.29 -12.21,-174.84 18.51,-46.66 49.29,-87.37 68.23,-133.51 42.83,-104.4 92.22,-206.33 43.44,-314.85 -48.47,-107.8 -129.3,-163.48 -247.32,-171.26 -111.77,-7.35 -222.3,4.08 -323.29,58.1 -99.49,53.24 -181.95,158.71 -165.51,271.51 17.36,119.29 147.53,210.19 157.22,330.13 5.59,69.46 -16.53,110.38 -51.24,171.06 -30.14,52.68 -55.96,145.72 10.07,175.28 72.65,32.51 153.83,30.75 231.72,35.26" /><path
         id="path98"
         style="fill:#ad1c22;fill-opacity:1;fill-rule:nonzero;stroke:none"
         d="m 4153.13,4681.02 c 81.02,5.3 167.3,4.97 245.31,-19.89 34.3,-10.93 69.79,-30.33 82.72,-65.95 10.18,-28.03 1.34,-59.45 -8.46,-86.14 -12.44,-33.83 -27.94,-65.78 -38.74,-100.3 -10.01,-32.03 -17.36,-64.25 -15.94,-97.98 1.6,-38.59 20.87,-73.91 39.21,-106.87 36.82,-66.17 68.39,-135.22 90.18,-207.97 21.89,-73.05 17.13,-143.31 -18.73,-210.85 -29.91,-56.31 -76.48,-100.63 -136.3,-123.76 -59.61,-23.03 -127.57,-22.97 -190.45,-20.22 -72.96,3.2 -144.68,19.66 -210.71,51.02 -108.75,51.62 -204.39,166.04 -179.15,292.82 22.69,113.97 133.25,188.25 153.27,303.78 11.23,64.84 -14.29,121.84 -45.41,176.79 -23.37,41.27 -44.07,91.21 -31.95,139.3 11.53,45.77 68.79,55.82 108.48,63.55 51.44,10.01 104.53,9.8 156.67,12.67 1.5,0.08 2.87,2.42 4.33,2.5 -72.62,-3.99 -146.12,-3.79 -215.44,-28.59 -26.9,-9.62 -49.05,-23.74 -58.37,-52.63 -14.78,-45.82 9.66,-100.24 31.96,-139.3 32.08,-56.2 54.42,-110.84 45.41,-176.79 -15.8,-115.37 -127.02,-191.4 -153.29,-303.78 -29.67,-126.94 74.09,-240.46 179.15,-292.82 65.4,-32.6 138.25,-46.94 210.73,-51.02 63.43,-3.56 130.12,-1.46 190.44,20.22 84.15,30.27 146.26,105.68 170.52,190.57 20.99,73.41 -4.32,150.09 -31.25,218.22 -13.41,33.94 -26.94,68.06 -44.13,100.28 -18.16,34.04 -38.94,66.38 -52.31,102.79 -24,65.35 3.8,142.49 30.06,202.95 20.56,47.37 47.44,106.26 8.3,151.41 -35.14,40.52 -101.36,50 -151.3,55.88 -53.1,6.25 -107.19,6.1 -160.48,2.61 -1.51,-0.1 -2.86,-2.4 -4.33,-2.5" /><path
         id="path100"
         style="fill:#ee2a34;fill-opacity:1;fill-rule:nonzero;stroke:none"
         d="m 4375.26,4514.57 c 76.23,31.91 67.71,95.68 -5.64,122.93 -59.77,22.2 -109.3,19.4 -172.16,24.69 -44.84,3.77 -92.04,-2.43 -136.07,-10.47 -38.28,-6.99 -199.01,-44.56 -114.7,-103.89 105.84,-72.17 313.62,-81.38 428.57,-33.26" /><path
         id="path102"
         style="fill:#611215;fill-opacity:1;fill-rule:nonzero;stroke:none"
         d="m 4370.94,4512.07 c 26.35,11.83 55.65,28.14 61.63,58.86 11.53,59.29 -84.85,79.37 -123.77,85.39 -108.24,16.72 -226.72,14.55 -329.59,-26.72 -18.63,-7.48 -40.26,-18.19 -53.81,-33.37 -30.08,-33.7 37.61,-64.31 59.59,-74.38 102.29,-46.84 232.25,-51.27 340.4,-24.74 15.55,3.81 30.72,8.94 45.55,14.96 3.06,1.24 5.6,3.76 8.65,5 -91.85,-37.31 -199.95,-36.93 -295.97,-18.13 -37.43,7.33 -218.43,59.9 -132.6,116.48 26.77,17.65 64.26,24.99 95.2,31.65 57.81,12.45 114.34,14.51 173.11,10.75 57.93,-3.7 120.51,-4.68 171.79,-35.5 49.11,-29.52 37.42,-83.29 -11.53,-105.25 -3.03,-1.37 -5.64,-3.65 -8.65,-5" /><path
         id="path104"
         style="fill:#231f20;fill-opacity:1;fill-rule:nonzero;stroke:none"
         d="m 4045.15,4856.62 c -86.72,-13.96 -186.74,-42.53 -223.37,-132.4 -23.18,-56.88 38.56,-93.67 82.51,-110.67 70.9,-27.44 150.39,-40.04 225.92,-44.5 115.85,-6.82 246.77,13.67 348.47,72.75 38.49,22.37 84.85,57.86 79.22,107.68 -7.35,65 -100.28,87.77 -150.7,99.83 -56.66,13.56 -117.16,22.83 -175.35,25.61 -62.51,2.98 -125.22,-8.6 -186.7,-18.3 -3.1,-0.49 -5.62,-4.52 -8.66,-5 77.48,12.23 154.51,24.45 232.95,13.98 73.39,-9.79 152.86,-17.68 219.81,-51.7 24.39,-12.4 45.74,-31.85 56.65,-57.16 12.72,-29.5 -4.51,-58.79 -23.75,-80.4 -43.75,-49.11 -117.86,-67.94 -179.5,-83.64 -75.48,-19.21 -154.2,-23.11 -231.6,-16.66 -72.28,6.02 -149.87,20.6 -216.46,50.12 -53.63,23.77 -85.9,67.51 -54.11,123.56 33.25,58.62 96.15,82.27 158.74,95.32 12.35,2.57 24.81,4.58 37.27,6.58 3.1,0.5 5.61,4.51 8.66,5" /><path
         id="path106"
         style="fill:#231f20;fill-opacity:1;fill-rule:nonzero;stroke:none"
         d="m 3816.87,4620.72 c 19.99,-61.38 71.87,-104.53 90.06,-167.34 19.86,-68.53 3.03,-146.61 -28.49,-208.77 -32.76,-64.58 -69.9,-124.18 -93.76,-193.17 -23.67,-68.42 -33.34,-142.37 -13.29,-212.86 36.92,-129.81 184.21,-196.91 305.56,-221.21 72.8,-14.57 151.52,-15.89 224.07,0.33 59.19,13.25 112.98,43.4 165.26,73.07 3.93,2.22 28.97,16.86 12.99,7.79 -64.91,-36.83 -129.91,-66.17 -204.71,-74.38 -69.51,-7.64 -142.02,-0.67 -209.55,16.94 -121.25,31.63 -245.99,106.55 -273.75,237.17 -30.04,141.37 56.51,269.64 116.99,388.89 30.86,60.84 41.08,134.87 24.66,201.2 -15.7,63.51 -70.1,106.03 -90.07,167.34 0.58,-1.76 -26.69,-12.82 -25.97,-15 v 0" /><path
         id="path108"
         style="fill:#231f20;fill-opacity:1;fill-rule:nonzero;stroke:none"
         d="m 4588.45,3887.64 c 71.32,130.71 -35.79,261.62 -76.45,383.35 -20.82,62.32 -36.72,127.43 -28.87,193.39 7.81,65.78 39.85,126.71 80.48,178 -1.9,-2.41 -6.72,-2.55 -8.65,-5 -39.66,-50.05 -68.29,-106.69 -79.31,-169.9 -11.39,-65.33 5.62,-130.85 24.94,-192.95 38.91,-125.07 152.12,-258.23 79.2,-391.89 1.34,2.46 7.28,2.47 8.66,5 v 0" /><path
         id="path110"
         style="fill:#231f20;fill-opacity:1;fill-rule:nonzero;stroke:none"
         d="m 3882.95,3812.72 c -18.03,8.21 -28.26,27.58 -29.08,46.9 -0.89,20.9 24.48,36.23 39.66,43.37 37.91,17.85 82.32,29.37 122.85,38.69 86.32,19.83 177.45,19.8 265.04,9.06 50.72,-6.21 286.13,-34.09 220.24,-129.54 0.85,1.23 3.47,1.25 4.34,2.5 68.69,99.53 -189.75,126.41 -242.05,132.06 -111.13,12.01 -217.8,-1.63 -323.83,-35.01 -21.22,-6.68 -42.23,-13.87 -61.37,-25.36 -11.87,-7.13 -21.71,-15.99 -27.23,-28.9 -8.79,-20.59 8.72,-47.9 27.09,-56.27 0.91,-0.41 3.48,2.89 4.34,2.5 v 0" /><path
         id="path112"
         style="fill:#231f20;fill-opacity:1;fill-rule:nonzero;stroke:none"
         d="m 3732.23,3980.33 c -20.9,23.14 -87.65,-11.32 -109.4,-20.16 -28.42,-11.54 -56.23,-23.95 -82.62,-39.62 -44.37,-26.36 -82.05,-66.13 -95.03,-117.02 -16.5,-64.59 20.05,-129.97 64.43,-173.78 92.78,-91.61 223.21,-140.78 347.49,-171.54 149.28,-36.94 304.47,-41.93 456.89,-24.92 81.8,9.13 164.22,23.12 245.01,38.86 82.16,16.01 164.68,36.86 240.62,72.76 52.09,24.63 104.43,57.63 135.61,107.3 44.23,70.44 21.68,162.62 -32.44,220.53 -59.08,63.22 -155.29,101.92 -241.42,100.15 -2.95,-0.06 -5.77,-4.94 -8.66,-5 102.83,2.12 223.54,-53.2 274.66,-145.21 37.05,-66.69 27.6,-148.02 -22.54,-204.26 -57.38,-64.38 -148.12,-93.8 -228.81,-116.17 -75.7,-20.97 -153.33,-34.03 -230.86,-46.03 -129.02,-19.98 -256.63,-33.28 -387.38,-23.64 -137.23,10.13 -276.31,43.52 -399.72,105.22 -103.16,51.57 -247.05,156.26 -198.12,290.48 21.25,58.28 77.72,93.93 131.61,117.34 35.59,15.45 80.17,39 120.08,35.56 4.76,-0.41 8.78,-2.35 11.94,-5.85 0.52,-0.57 8.25,5.46 8.66,5 v 0" /><path
         id="path114"
         style="fill:#231f20;fill-opacity:1;fill-rule:nonzero;stroke:none"
         d="m 3784.28,3448.03 c 64.52,0.76 123.7,-28.62 185.42,-43.23 68.24,-16.16 143.12,-16.81 212.93,-18.98 139.89,-4.35 270.63,32.89 405.5,64.65 9.38,2.21 16.73,12.83 25.98,15 -130.98,-30.85 -260.07,-69.31 -396.05,-65.07 -71.04,2.21 -143.83,4.85 -213.89,17.6 -65.69,11.96 -125.85,45.83 -193.92,45.03 -8.81,-0.1 -17.37,-14.9 -25.97,-15 v 0" /><path
         id="path116"
         style="fill:#231f20;fill-opacity:1;fill-rule:nonzero;stroke:none"
         d="m 3744.05,3846.79 c -29.68,-5.21 -62.54,-22.66 -79.58,-48.14 -29.46,-44.04 -3.14,-95.96 28.29,-129.73 40.13,-43.09 98.24,-66.62 153.25,-83.83 60.88,-19.04 125.01,-32.31 188.18,-40.69 132.33,-17.54 267.9,-5.77 397.89,22.43 74.69,16.19 149.38,39.4 218.57,72 38.07,17.94 83.98,40.51 108.94,75.54 35.85,50.32 -31.97,88.71 -69.89,106.26 -3.6,1.66 -13.96,-11.56 -17.33,-10 29.39,-13.6 68.12,-32.2 78.54,-65.84 7.62,-24.57 -11.62,-47.06 -28.62,-62.04 -30.62,-26.95 -70.63,-42.32 -108.21,-56.82 -37.51,-14.45 -76,-26.38 -114.79,-36.87 -107.18,-28.98 -218.91,-43.22 -329.86,-42.56 -73.37,0.43 -145.24,10.38 -216.82,25.9 -58.17,12.61 -116.18,27.75 -169.71,54.34 -45.45,22.59 -92.96,59.33 -109.3,109.29 -6.79,20.77 -4.94,43.39 3.28,63.37 9.4,22.88 26.45,33.29 49.85,37.39 6.22,1.09 11.21,8.93 17.32,10 v 0" /><path
         id="path118"
         style="fill:#ffffff;fill-opacity:1;fill-rule:nonzero;stroke:none"
         d="m 3889.13,4595.39 c 158.36,-53.86 341.51,-71.65 501.62,-15.14 6.2,2.19 11.17,7.83 17.33,10 -160.11,-56.51 -343.27,-38.72 -501.62,15.14 -4.27,1.45 -13.28,-11.38 -17.33,-10 v 0" /><path
         id="path120"
         style="fill:#cacbcc;fill-opacity:1;fill-rule:nonzero;stroke:none"
         d="m 4467.09,4869.02 c -31.93,-45.66 -53.75,-98.08 -70.33,-151.04 -8.1,-25.87 -14.74,-52.12 -20.5,-78.61 -2.02,-9.29 -2,-22.59 -8.98,-29.84 -2.62,-2.73 -25.49,-10.66 -24.46,-7.08 34.17,118.3 66.06,246.56 125.75,355.93 18.65,34.16 45.47,102.28 82.13,120.7 20.71,10.87 74.86,-0.95 92.5,-18.7 36.6,-39.94 -19.67,-63.17 -47.55,-79 -50.58,-26.33 -95.26,-66.24 -128.56,-112.36" /><path
         id="path122"
         style="fill:#231f20;fill-opacity:1;fill-rule:nonzero;stroke:none"
         d="m 4462.76,4866.52 c -26.67,-39.07 -46.26,-81.54 -62.07,-126.02 -7.98,-22.46 -14.54,-45.4 -20.5,-68.47 -3.02,-11.65 -5.66,-23.41 -8.26,-35.16 -2.15,-9.71 -1.22,-24.64 -10.68,-30.97 2.83,1.63 5.67,3.27 8.52,4.9 -5.21,-2.46 -10.5,-4.31 -16.03,-5.9 -12.38,-3.56 -3.74,9.96 -1.84,16.62 7.23,25.22 14.29,50.48 21.53,75.69 14.68,51.14 30.36,101.98 48.97,151.83 16.99,45.51 38.91,88 60.52,131.36 17.33,34.79 34.42,75.9 67.58,98.62 -2.45,-1.43 -4.91,-2.86 -7.37,-4.3 25.75,14.53 65,2.92 88.61,-11.17 46.03,-27.49 -1.18,-63.05 -27.76,-77.43 -55.56,-30.08 -103.37,-68.35 -141.22,-119.6 1.8,2.43 6.83,2.52 8.66,5 39.18,53.05 87.28,88.61 144.29,120.76 28.19,15.89 58.98,37.66 31.82,70.6 -21.02,25.5 -74.52,29.2 -101.39,13.69 -36.08,-20.84 -54.22,-65.51 -71.88,-101.17 -30.88,-62.33 -59.15,-123.71 -81.09,-189.92 -11.14,-33.64 -21.06,-67.68 -30.83,-101.74 -4.83,-16.83 -9.58,-33.69 -14.35,-50.54 -2.24,-7.92 -17.11,-36.22 -2.9,-33.3 35.82,7.36 33.95,36.49 41.58,68.37 17.1,71.58 43.08,142.19 84.75,203.25 -1.67,-2.45 -6.95,-2.5 -8.66,-5" /><path
         id="path124"
         style="fill:#611215;fill-opacity:1;fill-rule:nonzero;stroke:none"
         d="m 4360.22,4552.69 c -57.91,-125.05 -10.05,-287.88 19.73,-412.02 16.23,-67.66 29.72,-141.08 14.71,-210.21 -4.16,-19.14 -15.54,-44.95 -28.67,-59.65 -19.56,-21.9 -50.92,-47.96 -76.79,-61.35 -36.58,-18.92 -72.74,-30.17 -108.32,-2.45 -29.28,22.81 -42.07,54.72 -31.7,91.35 9.02,31.86 33.8,51.25 58.02,70.85 43.39,35.14 97.37,50.46 120.41,106.81 20.12,49.21 7.58,104.45 -3.26,155.32 -8.33,39.12 -15.44,79.76 -18.93,119.15 -1.97,22.41 -3.1,45.1 -3.67,67.95 -0.68,26.87 -4.14,59.47 3.89,85.19 5.67,18.12 22.75,52.37 46.57,47.91" /><path
         id="path126"
         style="fill:#231f20;fill-opacity:1;fill-rule:nonzero;stroke:none"
         d="m 4355.9,4550.19 c -56.08,-126.18 -14.89,-270.36 16.21,-397.53 18.02,-73.64 33.25,-149.13 18.22,-224.7 -13.21,-66.43 -86.56,-125.68 -151.34,-134.71 -31.94,-4.46 -60.42,16.85 -77.32,41.94 -17.5,25.98 -13.45,59.54 0.4,85.89 26.76,50.91 90.53,73.49 133.09,108.14 57.74,47.04 50.58,122.02 37.14,187.51 -15.58,75.98 -23.89,149.77 -27.1,227.22 -1.54,36.85 0.47,85.52 35.84,107.57 -2.85,-1.64 -5.68,-3.27 -8.52,-4.9 5.6,2.22 9.35,2.83 15.36,2.42 2.79,-0.19 5.94,5.18 8.65,5 -28.68,1.96 -47.36,-29.77 -55.21,-52.91 -10.05,-29.61 -4.5,-64.37 -3.62,-94.97 1.18,-41.11 5.19,-81.87 11.8,-122.45 11.52,-70.7 41.7,-147.38 10.74,-217.03 -23.2,-52.19 -86.57,-74.72 -128.53,-109.05 -47.89,-39.17 -71.48,-100.36 -20.79,-148.44 38.23,-36.27 87.97,-17.99 127.42,5.32 49.87,29.46 90.83,69.1 102.45,127.49 14.72,73.98 -4.28,151.31 -21.83,223.03 -30.56,124.99 -69.44,266.32 -14.41,390.16 -1.07,-2.42 -7.55,-2.5 -8.65,-5 v 0" /><path
         id="path128"
         style="fill:#ffffff;fill-opacity:1;fill-rule:nonzero;stroke:none"
         d="m 4344.03,4393.05 c -55.12,-144.32 22.62,-291.66 87.81,-415.93 5.89,-13.56 -8.71,-48.45 21.74,-41.42 34.47,6.31 17.08,71.95 12.64,93.6 -21.83,87.28 -93.87,150.24 -94.77,237.94 -2.27,33.76 23.3,83.35 16.27,113.78 -14.79,56.85 -65.01,32.53 -52.81,-15.51" /><path
         id="path130"
         style="fill:#ffffff;fill-opacity:1;fill-rule:nonzero;stroke:none"
         d="m 4335.37,4388.05 c -48.59,-133.66 10.75,-267.18 71.99,-385.67 5.56,-10.76 13.27,-21.88 16.79,-33.46 2.32,-7.65 0.28,-17.31 0.69,-25.23 0.92,-17.77 19.04,-15.13 30.51,-8.66 8.53,4.81 17.21,8.74 22.69,17.14 10.14,15.57 4.7,41.18 1.81,58.04 -17.57,102.28 -118.55,186.43 -96.06,295.04 5.18,25 14.86,49.31 13.5,75.21 -0.95,18.27 -15.05,41.8 -35.74,37.71 -27.43,-5.41 -40.47,-32.25 -35.3,-57.66 -0.39,1.94 17.77,7.79 17.32,10 -3.04,14.95 -3.08,35.87 12.12,44.84 -4.94,-2.82 -9.88,-5.65 -14.82,-8.47 15.76,6.08 26.5,-4.56 33.59,-17.83 11.94,-22.31 3.13,-49.58 -2.68,-72.28 -13.34,-52.18 -7.9,-95.8 15.24,-144.53 22.49,-47.35 53.17,-89.86 68.55,-140.52 7.79,-25.64 22.94,-78.81 -2.79,-98.09 5.67,3.28 11.33,6.56 17,9.84 -35.89,-17.43 -23.69,27.98 -33.21,46.14 -21.74,41.45 -43.01,83.1 -61.2,126.25 -37.93,89.92 -56.88,188.11 -22.67,282.19 -1.71,-4.7 -15.55,-5.11 -17.33,-10 v 0" /><path
         id="path132"
         style="fill:#231f20;fill-opacity:1;fill-rule:nonzero;stroke:none"
         d="m 4537.85,5049.76 c 14.91,15.27 46.88,13.47 64.86,5.07 31.87,-14.87 -18.6,-47.49 -29.33,-55.97 -32.75,-25.87 -64.95,-52.09 -91.69,-84.34 -29.46,-35.53 -49.82,-79.61 -63.72,-123.31 0.72,2.29 7.89,2.6 8.65,5 16.38,51.48 41.66,99.79 78.12,139.87 16.3,17.94 34.99,33.67 53.72,48.98 19.28,15.76 43.36,29.81 58.88,49.43 21.59,27.26 -31.62,31.99 -46.29,30.38 -14.6,-1.6 -31.39,-9.39 -41.85,-20.11 2.23,2.28 6.41,2.69 8.65,5 v 0" /><path
         id="path134"
         style="fill:#ffffff;fill-opacity:1;fill-rule:nonzero;stroke:none"
         d="m 4539.85,5061.97 c 31.53,13.57 112.77,2.03 74.82,-44.42 -30.18,-36.93 -83.68,-53.3 -109.94,-93.07 3.25,4.92 14,4.97 17.32,10 10.9,16.51 29.63,28.16 45.26,39.71 21.31,15.73 43.37,30.95 61.79,50.13 44.48,46.32 -37.96,62.28 -71.92,47.65 -6.1,-2.63 -11.26,-7.39 -17.33,-10 v 0" /><path
         id="path136"
         style="fill:#231f20;fill-opacity:1;fill-rule:nonzero;stroke:none"
         d="m 4139.22,4643.33 c 62.99,7.7 114.69,57.62 149.39,107.04 49.93,71.12 81.88,165.3 70.9,252.67 -11.89,94.71 -93.91,141.41 -184.51,134.85 -74.81,-5.41 -164.22,-65.98 -137.11,-152.09 12.36,-39.27 53.19,-62.33 92.82,-59.12 25.73,2.09 51.93,19.79 69.73,37.32 -2.29,-2.25 -6.35,-2.73 -8.65,-5 -38.09,-37.47 -93.59,-35.96 -129.23,3.83 -35,39.06 -21.41,96.92 11.11,132.51 36.49,39.94 104.53,43.39 154.16,34.3 41.5,-7.59 79.01,-30.66 101.35,-66.66 43.88,-70.69 22.23,-168.99 -7.26,-240.55 -29.94,-72.65 -88.98,-163.71 -174.05,-174.1 -3.07,-0.37 -5.64,-4.63 -8.65,-5 v 0" /><path
         id="path138"
         style="fill:#231f20;fill-opacity:1;fill-rule:nonzero;stroke:none"
         d="m 4128.07,5002.01 c -43.39,35.18 14.59,61.79 47.76,65.33 50.93,5.43 90.01,-32.86 108.68,-76.96 19.72,-46.54 11.5,-101.45 -13.42,-144.16 -30.87,-52.93 -92.19,-81.96 -150.17,-93.22 -106.02,-20.59 -243.03,25.71 -277.37,137.67 -35.28,115.03 81.04,229.47 177.49,266.33 64.11,24.51 165.13,51.22 196.41,121.04 23.52,52.5 -50.16,109.76 -91.44,125.47 -51.53,19.61 -110.62,7.61 -160.91,-9.58 -3.11,-1.07 -5.58,-3.95 -8.65,-5 56.17,19.21 117.31,28.79 173.47,4.47 27.58,-11.94 48.79,-33.72 65.88,-57.84 20.9,-29.49 20.69,-58.54 -1.75,-87.06 -37.63,-47.84 -109.55,-65.82 -164.36,-86.5 -28.75,-10.84 -55.37,-24.82 -80.63,-42.25 -87.6,-60.44 -160.52,-182.28 -90.49,-281.9 66.69,-94.85 202.04,-113.9 304.67,-75.53 39.77,14.87 79.57,41.1 106.21,73.97 39.51,48.75 44.94,120.44 16.03,175.33 -29.5,56.01 -89.35,75.36 -145.83,48.34 -27.3,-13.06 -51.22,-37.83 -20.24,-62.95 0.98,-0.79 7.79,5.71 8.66,5 v 0" /><path
         id="path140"
         style="fill:#ad1c22;fill-opacity:1;fill-rule:nonzero;stroke:none"
         d="m 4039.42,2153.27 c 82.93,5.92 165.88,8.87 248.8,8.87 70.87,0 146.84,-3.67 214.75,-25.11 35.63,-11.25 72.79,-24.36 78.63,-64.57 7.37,-50.83 -20.46,-101.35 -26.84,-150.9 -9.13,-70.74 -15.69,-136.52 -3.57,-207.26 11.41,-66.44 37.05,-127.93 57.61,-191.96 16.1,-50.2 13.35,-91.05 5.12,-142.18 -9.87,-61.22 -34.39,-90.43 -85.82,-127.44 -40.17,-28.91 -83.59,-55.06 -130.27,-71.69 -102.02,-36.35 -204.68,-51.06 -313.99,-40.79 -104.98,9.86 -180.5,76.94 -228.73,168.23 -51.62,97.7 -24.8,208.15 -8.89,311.6 14,91.02 18.89,177.22 0.82,266.63 -8.62,42.63 -11.73,85.52 -2.96,127.18 3.94,18.66 13.09,40.58 14.8,59.2 3.91,42.73 -12.14,56.18 37.35,66.49 47.75,9.96 94.61,11.14 143.19,13.7" /><path
         id="path142"
         style="fill:#ad1c22;fill-opacity:1;fill-rule:nonzero;stroke:none"
         d="m 4037.26,2152.02 c 82.83,5.79 165.77,8.76 248.79,8.87 74.56,0.11 149.61,-4.32 221.05,-27.12 24.16,-7.71 48.07,-17.22 63.44,-38.35 19.87,-27.32 8.36,-70.74 0.63,-100.14 -19.5,-74.28 -31.01,-148.04 -28.22,-225.25 2.81,-77.59 30.21,-150.27 55.04,-222.87 22.83,-66.78 26.84,-134.53 5.57,-202.7 -21,-67.34 -97.52,-111.31 -155.43,-141.35 -68.49,-35.53 -148.55,-53.16 -224.77,-61.33 -61.15,-6.54 -127.76,-7.4 -187.4,9.26 -49.31,13.76 -91.84,44.43 -125.99,81.85 -38.35,42.02 -66.67,94.27 -77.72,150.1 -12.22,61.69 -1.96,126.3 7.92,187.53 10.9,67.66 20.96,134.9 20.71,203.61 -0.26,69.15 -22.32,136.02 -19.39,205.03 1.3,30.69 12.47,58.36 18.59,88.04 3.57,17.37 -0.98,35.31 2.55,52.53 4.21,20.56 44.8,21.25 60,23.59 37.86,5.84 76.43,6.74 114.63,8.7 1.5,0.08 2.87,2.42 4.33,2.5 -38.31,-1.97 -76.58,-3.56 -114.63,-8.7 -18.81,-2.54 -39.58,-5.01 -56.33,-14.62 -5.84,-3.36 -10.08,-7.37 -12.33,-13.97 -2.39,-7.02 -1.12,-15.83 -0.95,-23.06 0.36,-15.24 -1.27,-29.55 -5.04,-44.33 -8.69,-34.1 -16.18,-64.79 -15.43,-100.43 0.84,-40.79 12.2,-80.63 16.59,-121.07 8.49,-78.41 -0.86,-157.41 -13.45,-234.81 -11.48,-70.54 -24.05,-141.69 -12.11,-213.04 10.5,-62.7 47.85,-120.77 92.16,-165.23 98.19,-98.56 252.89,-89.87 379.03,-63.23 99.16,20.93 213.96,67.94 282.33,147.02 38.71,44.78 44.6,117.66 40.12,174.02 -2.8,35.4 -16.64,69.25 -28.15,102.49 -12.91,37.31 -25.51,74.63 -34.63,113.07 -18.37,77.39 -11.8,156.15 -1.85,234.18 7.22,56.62 57.82,140.46 6,188.54 -19.39,18.01 -50.24,25.01 -74.92,31.93 -37.85,10.59 -77.33,15.08 -116.43,17.82 -79.74,5.61 -160.64,2.19 -240.41,-1.34 -29.88,-1.33 -59.73,-3.15 -89.57,-5.24 -1.51,-0.11 -2.85,-2.4 -4.33,-2.5" /><path
         id="path144"
         style="fill:#ee2a34;fill-opacity:1;fill-rule:nonzero;stroke:none"
         d="m 3968.33,2129.57 c -20.74,-2.97 -88.88,-5.93 -100.71,-32.59 -17.78,-35.55 44.42,-47.38 71.09,-53.32 88.86,-17.78 183.64,-11.84 272.5,-14.8 88.87,-2.98 248.81,-26.66 325.82,17.77 57.49,33.15 8.51,71.57 -33.95,82.38 -46.01,11.73 -94.1,7.6 -140.87,12.4 -132,13.55 -263,6.85 -393.88,-11.84" /><path
         id="path146"
         style="fill:#611215;fill-opacity:1;fill-rule:nonzero;stroke:none"
         d="m 3972.66,2132.07 c -31.23,-4.09 -63.84,-5.25 -91.67,-21.54 -11.61,-6.78 -20.28,-14.79 -20.8,-29.31 -0.75,-20.37 32.35,-29.3 46.78,-33.53 66.29,-19.37 137.9,-19.51 206.36,-20.11 63.13,-0.54 125.59,-3.05 188.56,-7.09 58.4,-3.75 118.06,-6.42 175.88,4.45 28.9,5.43 60.78,17.25 82.04,38.62 19.08,19.17 -0.6,41.27 -17.05,52.69 -28.59,19.84 -67.3,21.96 -100.78,23.83 -81.06,4.56 -161.98,11.85 -243.27,10.77 -75.66,-1.01 -151.16,-8.26 -226.05,-18.78 -3.09,-0.43 -5.63,-4.57 -8.66,-5 78.25,10.99 156.88,17.85 235.9,18.9 78.04,1.05 155.57,-7.46 233.42,-10.89 29.51,-1.29 150.26,-14.39 121.43,-71.67 -12.49,-24.79 -56.2,-31.6 -81.04,-35.73 -27.52,-4.58 -55.69,-5.26 -83.53,-5.27 -54.66,-0.01 -109.11,5.75 -163.65,8.5 -72.74,3.68 -145.6,-0.07 -218.28,6.06 -29.51,2.5 -58.82,7.17 -87.55,14.36 -17.83,4.47 -39.75,10.68 -49.83,27.38 -24.59,40.73 73.73,45.82 93.13,48.36 3.08,0.4 5.64,4.61 8.66,5" /><path
         id="path148"
         style="fill:#231f20;fill-opacity:1;fill-rule:nonzero;stroke:none"
         d="m 4085.45,2184.33 c 14.3,-52.47 14.02,-106.28 13,-160.23 -1.01,-52.89 0.81,-104.02 9.82,-156.22 7.69,-44.52 20.32,-87.99 39.46,-128.95 9.4,-20.12 21.07,-39.07 33.74,-57.26 5.88,-8.43 12.32,-16.44 18.81,-24.39 4.02,-4.92 21.42,-19.28 21.42,-25.02 0,1.6 8.65,3.27 8.65,5 0,0.37 0,0.74 0,1.11 -2.88,-1.66 -5.77,-3.33 -8.65,-5 0.44,-0.43 0.88,-0.87 1.32,-1.31 2.88,1.67 5.77,3.34 8.66,5 -0.45,0.44 -0.89,0.88 -1.33,1.31 -0.07,0.08 -8.65,-4.45 -8.65,-5 0,-0.98 0,-1.97 0,-2.95 0,1.6 8.65,3.27 8.65,5 0,0.98 0,1.97 0,2.95 0,-1.66 -8.5,-3.16 -8.65,-5 0.35,-3.38 -0.64,-6.35 -2.96,-8.89 1.43,2.47 7.19,2.47 8.65,5 2.34,2.54 3.32,5.51 2.96,8.89 -2.88,-1.66 -5.77,-3.33 -8.65,-5 0,-0.98 0,-1.97 0,-2.95 0,1.6 8.65,3.27 8.65,5 0,0.98 0,1.97 0,2.95 -2.88,-1.66 -5.77,-3.33 -8.65,-5 0.44,-0.43 0.88,-0.87 1.32,-1.31 0.66,-0.67 8.09,5.56 8.66,5 -0.45,0.44 -0.89,0.88 -1.33,1.31 -0.07,0.08 -8.65,-4.45 -8.65,-5 0,-0.37 0,-0.74 0,-1.11 0,1.6 8.65,3.27 8.65,5 0,4.36 -13.19,15.45 -16.31,19 -8.52,9.68 -16.33,19.98 -23.9,30.41 -13.05,17.96 -23.99,37.35 -33.74,57.26 -19.88,40.55 -31.34,84.72 -39.47,128.95 -19.22,104.67 5.24,213.48 -22.83,316.45 0.21,-0.75 -8.89,-4.11 -8.65,-5 v 0" /><path
         id="path150"
         style="fill:#611215;fill-opacity:1;fill-rule:nonzero;stroke:none"
         d="m 4223.07,1624.02 c 47.39,20.72 118.48,68.12 174.76,41.47 59.23,-26.66 79.98,-148.11 88.86,-207.35 2.96,-35.54 5.93,-68.12 14.81,-103.67 8.89,-29.62 29.62,-62.21 29.62,-91.82 2.96,-68.12 -77.02,-62.2 -124.41,-79.98 -68.13,-20.73 -133.28,-41.47 -204.38,-44.44 -26.66,0 -74.05,0 -94.78,20.75 -29.62,26.65 -11.86,65.16 -8.9,100.7 2.69,58.94 -3.7,114.39 -28.38,168.12 -9.99,21.74 -26.33,38.77 -35.84,60.96 -6,14.06 -3.93,27.88 -4.81,42.27 -0.5,8.35 -2.23,14.47 -1.01,23.13 5.47,38.93 44.83,40.3 77.43,44.74 39.57,5.41 80.35,7.75 117.03,25.12" /><path
         id="path152"
         style="fill:#231f20;fill-opacity:1;fill-rule:nonzero;stroke:none"
         d="m 4218.74,1621.52 c 51.76,23.26 109.05,63.1 168.2,44.23 45.87,-14.63 64.67,-74.52 76.36,-115.53 15.92,-55.87 18.29,-112.77 27.8,-169.71 5.8,-34.7 22.27,-64.38 32.32,-97.68 7.25,-24.05 4.45,-50.5 -14.63,-67.83 -16.4,-14.9 -47.69,-17.16 -68.42,-21.68 -30.78,-6.72 -60.68,-17.87 -90.96,-26.58 -63.9,-18.37 -132.4,-33.37 -198.98,-22.32 -27,4.49 -48.84,19.3 -54.68,47.11 -2.83,13.5 0.59,28.57 2.88,41.86 3.21,18.53 4.83,36.26 4.91,55.08 0.17,34.26 -4.5,68.22 -13.72,101.18 -9.95,35.62 -30.2,62.63 -47.65,94.39 -11.02,20.05 -10.32,50.22 -9.23,72.62 1.1,22.44 20.04,31.63 39.29,35.58 49.31,10.14 99.57,8.55 146.51,29.28 3.04,1.34 5.64,3.66 8.65,5 -31.92,-14.1 -65.64,-18.71 -100.01,-22.93 -24.47,-3.02 -51.04,-3.99 -73.44,-15.19 -36.43,-18.19 -32.14,-58.05 -26.56,-93.73 2.38,-15.17 14.35,-29.9 22.64,-42.31 9.23,-13.82 16.52,-27.84 22.78,-43.23 14.01,-34.38 19.76,-71.52 21.69,-108.37 1.7,-32.3 -3.98,-62 -7.66,-93.77 -3.67,-31.6 12.73,-54.63 42.19,-64.51 60.17,-20.2 135.51,-1.05 194.21,14.41 31.39,8.27 62.05,18.9 93.24,27.73 22.19,6.29 45.11,9.17 67,16.67 22.63,7.75 44.46,22.46 50.72,46.58 7.59,29.18 -9.03,60.46 -19.98,86.42 -15.5,36.76 -18.91,77.36 -22.37,116.73 -5.63,63.7 -20.14,139.63 -59.2,191.71 -52.99,70.63 -145.39,10.68 -205.25,-16.21 -3.02,-1.36 -5.64,-3.64 -8.65,-5" /><path
         id="path154"
         style="fill:#231f20;fill-opacity:1;fill-rule:nonzero;stroke:none"
         d="m 3781.56,2265.11 c 47.16,-149.68 20.13,-303.05 9.53,-456 -4.97,-71.82 -10.42,-143.29 -19.54,-214.71 -8.25,-64.67 -15.98,-129.59 -12.68,-194.89 6.22,-122.93 72.5,-224.45 186.98,-271.78 102.7,-42.46 222.31,-36.04 328.98,-14.13 2.11,0.46 4.22,0.91 6.34,1.36 9.37,2 16.75,13.02 25.98,15 -107.89,-23.05 -224.33,-28.59 -329.27,10.4 -116.15,43.15 -182.62,145.39 -192.53,266.47 -5.31,64.94 3.08,130.58 11.21,194.92 8.95,70.78 14.98,141.48 19.86,212.66 10.43,152.56 38.41,306.83 -6.02,456.63 -0.96,3.03 -1.9,6.05 -2.86,9.07 0.59,-1.85 -26.7,-12.72 -25.98,-15 v 0" /><path
         id="path156"
         style="fill:#231f20;fill-opacity:1;fill-rule:nonzero;stroke:none"
         d="m 3968.71,2302.76 c -30.65,4.87 -61.8,-1.35 -87.89,-17.69 -14.68,-9.19 -23.78,-30.23 -8.84,-42.32 18.11,-14.65 50.63,-16.2 72.39,-22.26 138.62,-38.54 288.29,-29.63 430.03,-18.2 40.41,3.25 80.96,4.31 121.34,8.01 34.79,3.19 75.06,6.07 106.07,23.73 5.92,3.38 11.74,6.64 16.73,11.35 24.34,22.95 -11.33,31.76 -27.56,40.81 -51.81,28.88 -119.09,27.05 -176.52,27.34 -57.56,0.3 -115.29,3.01 -172.36,11.07 -59.25,8.36 -112.81,32.55 -144.06,85.77 -27.88,47.49 -20.79,106.93 7.01,152.41 23.65,38.7 59.2,56.54 101.29,67.45 66.47,17.23 152.7,24.6 215.65,-8.31 26.69,-13.96 41.69,-38.71 40.07,-68.85 -2.35,-43.61 -32.32,-69.49 -70.99,-84.4 -41.24,-15.91 -141.86,-31.25 -138,39.45 -0.09,-1.76 -8.56,-3.11 -8.66,-5 -4.5,-82.41 123.87,-49.95 164.44,-27.44 20.37,11.3 40.84,23.94 52.13,45.13 14.57,27.37 14.01,63.46 -6.19,87.46 -43.56,51.71 -141.72,43.61 -200.55,34.86 -60.32,-8.97 -117.17,-29.08 -154.19,-79.87 -32.15,-44.11 -36.65,-103.14 -13.73,-152.07 25.96,-55.43 83.09,-80.5 139.99,-90.48 56.34,-9.88 115.23,-11.99 172.31,-12.15 59.51,-0.17 122.49,0.43 177.82,-24.42 14.81,-6.66 48.92,-15.69 38.9,-35.86 -9.21,-18.52 -36.19,-21.66 -54.35,-25.31 -45.24,-9.08 -92.01,-10.69 -137.96,-13.02 -129.65,-6.57 -257.56,-19.42 -387.06,-1.34 -30.73,4.3 -61.08,10.81 -90.95,19.11 -20.27,5.64 -41.72,8.34 -60.73,17.77 -20.32,10.09 -9.41,28.62 1.47,41.48 13.29,15.7 56.23,13.66 74.3,10.79 2.6,-0.41 6.15,5.4 8.65,5 v 0" /><path
         id="path158"
         style="fill:#231f20;fill-opacity:1;fill-rule:nonzero;stroke:none"
         d="m 4639.36,2239.62 c -6.08,-101.65 -19.71,-202.65 -26.1,-304.28 -6.61,-105.35 -2.39,-211.02 4.49,-316.23 5.82,-88.91 24.65,-183.38 4.56,-271.48 -17.56,-77.02 -70.33,-134.75 -146.11,-157.51 -3.11,-0.93 -5.57,-4.07 -8.65,-5 53.55,16.09 101.42,46.65 132.72,93.82 51.25,77.27 38.88,171.98 32.32,259.05 -8.87,117.74 -16.47,235.6 -12.92,353.72 3.54,118.05 21.31,235.09 28.34,352.91 -0.1,-1.76 -8.55,-3.1 -8.65,-5 v 0" /><path
         id="path160"
         style="fill:#231f20;fill-opacity:1;fill-rule:nonzero;stroke:none"
         d="m 4082.26,2372 c -34.79,37.6 -40.41,100 -36.17,148.77 5.33,60.95 37.96,107.29 83.13,146.44 76.11,65.98 229.25,137.89 182.16,263.87 -31.34,83.82 -156,83.34 -221.48,46.4 -35.31,-19.93 -60.68,-48.54 -73.64,-87.75 -6.96,-21.04 -6.41,-45.73 11.24,-60.94 17.22,-14.84 46.43,-13.22 67.4,-12.08 10.72,0.58 21.39,2.03 32.01,3.49 3.08,0.42 5.63,4.58 8.66,5 -34.67,-4.77 -95.66,-14.92 -112.21,26.65 -10.2,25.59 5.65,58.03 18.49,79.42 14.94,24.91 37.42,42.34 64.26,52.56 80.46,30.65 192.83,6.22 204.8,-91.67 6.6,-53.92 -31.7,-101.26 -68.41,-135.6 -41.04,-38.39 -90.64,-66.11 -132.48,-103.64 -42.86,-38.46 -68.05,-85.19 -73.07,-142.69 -4.08,-46.79 3.55,-107.45 36.65,-143.23 0.55,-0.6 8.21,5.49 8.66,5 v 0" /><path
         id="path162"
         style="fill:#231f20;fill-opacity:1;fill-rule:nonzero;stroke:none"
         d="m 4665.77,2058.02 c 24.56,77.27 131.01,108.23 203.31,91.4 67.42,-15.69 94.23,-86.69 88.42,-149.02 -6.87,-73.87 -47.11,-144.17 -88.8,-203.73 -38.02,-54.33 -88.99,-120 -149.75,-150.45 -2.7,-1.35 -6.24,-3.79 -8.34,-4.85 54.31,27.22 97.83,73.24 135.87,119.59 56.62,69 109.32,154.07 119.68,244.44 9.69,84.46 -44.1,154.32 -131.36,153.44 -64.21,-0.64 -156.46,-39.03 -177.68,-105.82 0.72,2.3 7.9,2.61 8.65,5 v 0" /><path
         id="path164"
         style="fill:#231f20;fill-opacity:1;fill-rule:nonzero;stroke:none"
         d="m 4671.47,1986.01 c 9.21,26.46 26.81,48.12 47.4,66.71 5.55,5.03 11.56,9.53 17.61,13.95 12.4,8.01 11.84,7.97 -1.66,-0.13 4.72,2.47 9.53,4.72 14.44,6.75 14.32,6.19 29.63,9.69 45.16,10.81 69.2,4.95 94.74,-68.36 86.44,-125.45 -9.95,-68.41 -59.29,-128.65 -104.13,-178.18 -42.76,-47.19 -91.2,-88.4 -137.14,-132.34 6.97,6.67 18.93,8.25 25.98,15 50.72,48.5 103.79,94.1 150.18,146.98 48.02,54.72 98.02,124.66 92.59,201.18 -2.39,33.78 -19.23,66.93 -50.7,81.66 -29.33,13.72 -64.81,3.76 -92.38,-9.16 -49.44,-23.15 -101.16,-59.32 -119.76,-112.78 2.43,7 23.45,7.72 25.97,15 v 0" /><path
         id="path166"
         style="fill:#231f20;fill-opacity:1;fill-rule:nonzero;stroke:none"
         d="m 3725.63,1352.95 c -36.11,22.51 -94.96,3.12 -132.09,-7.05 -43.9,-12.02 -86.9,-28.73 -128.76,-46.49 -23.67,-10.03 -48.5,-23 -66.35,-41.8 -38.61,-40.62 20.09,-85.34 50.91,-106.57 48.25,-33.23 104.23,-55.1 158.93,-75.05 67.97,-24.79 138.12,-43.41 208.62,-59.32 141.56,-31.971 287.15,-54.51 431.13,-72.381 122.19,-15.168 245.52,-17.48 356.3,43.063 85.33,46.638 161.17,108.938 238.83,166.988 34.08,25.46 74.71,41.42 105.25,71.69 33.43,33.15 8.84,66.28 -23.55,87.93 -41.04,27.44 -92.35,40.09 -139.88,50.77 -45.93,10.33 -92.6,16.82 -139.12,23.75 -1.32,0.2 -3.07,-2.68 -4.34,-2.5 51.15,-7.62 102.25,-15.1 152.64,-26.83 49.96,-11.64 103.55,-27.24 143.71,-60.57 41.29,-34.27 17.19,-69.7 -18.15,-95.37 -41.81,-30.36 -86.83,-55.16 -128.28,-86.42 -69.89,-52.69 -138.67,-108.25 -218.91,-144.731 -63.92,-29.079 -132.16,-35.418 -201.64,-34.368 -76.29,1.161 -152.2,12.899 -227.38,24.848 -70.53,11.223 -141.21,21.641 -211.49,34.313 -102.63,18.508 -204.57,42.078 -303.29,75.938 -76.38,26.19 -168,58.6 -222.68,121.6 -59.67,68.72 64.72,107.09 112.8,125.7 35.2,13.63 71.52,24.76 108.45,32.63 28.35,6.05 67.62,14.18 94.01,-2.27 0.69,-0.43 3.7,2.9 4.33,2.5 v 0" /><path
         id="path168"
         style="fill:#231f20;fill-opacity:1;fill-rule:nonzero;stroke:none"
         d="m 3768.05,1272.13 c -39.49,-6.81 -190.54,-55.77 -111.75,-112.93 36.66,-26.61 86.01,-37.02 128.69,-49.86 68.46,-20.61 134.93,-42.26 205.6,-54.78 74.91,-13.27 152.65,-19.82 228.69,-15.45 71.45,4.11 139.88,25.91 205.31,53.78 57.87,24.65 113.9,52.91 167.59,85.75 21.58,13.19 46.58,28.48 60.2,50.46 14.09,22.72 -13.7,33.05 -31.26,37.12 -7.26,1.68 -19.01,-16.61 -25.97,-15 24.76,-5.73 45.86,-18.73 26.56,-43.88 -21.94,-28.58 -59.4,-46.54 -90.68,-62.4 -95.08,-48.17 -195.95,-87.31 -303.5,-91.7 -76.36,-3.13 -154.06,5.69 -229.03,19.59 -67.22,12.47 -130.68,34.58 -195.93,54.02 -43.03,12.83 -92,24.28 -127.67,52.98 -13.71,11.03 -18.8,27.29 -11.5,43.58 1.78,3.98 4.92,7.29 7.79,10.45 1.73,1.91 12.85,8.47 3.57,4.1 11.52,5.42 23.87,9.11 36.12,12.47 10.25,2.81 20.71,4.9 31.19,6.7 9.32,1.62 16.82,13.42 25.98,15 v 0" /><path
         id="path170"
         style="fill:#ffffff;fill-opacity:1;fill-rule:nonzero;stroke:none"
         d="m 4430.41,1955.79 c 15.81,-98.74 -3.95,-197.47 0,-296.21 3.96,-82.94 55.29,-181.67 63.2,-39.5 3.94,75.04 11.86,154.04 7.89,229.08 0,31.6 3.97,86.89 -19.73,106.63 -31.59,31.6 -63.22,11.84 -47.4,-31.6" /><path
         id="path172"
         style="fill:#ffffff;fill-opacity:1;fill-rule:nonzero;stroke:none"
         d="m 4421.75,1950.79 c 9.45,-63.53 5.64,-127.27 2.11,-191.11 -2.84,-51.12 -6.57,-103.37 4.97,-153.68 3.7,-16.12 12.95,-59.77 34.14,-62.8 11.3,-1.6 26.76,15.4 30.35,24.18 8.41,20.51 8.28,45.4 9.46,67.11 1.74,31.84 4.08,63.66 5.89,95.51 3.14,55.17 2.87,110.54 1.53,165.77 -0.71,29.1 -15.24,94.84 -59.45,78.4 -25.69,-9.56 -33.29,-28.5 -25.05,-54.98 -0.39,1.26 17.81,8.45 17.33,10 -4.78,15.33 -8.31,34.55 7.43,44.77 -5.67,-3.26 -11.35,-6.53 -17.02,-9.79 32.06,11.93 52.82,-27.63 57.25,-52.8 6.44,-36.51 3.2,-77.66 3.23,-114.56 0.04,-51.19 -4.13,-102.35 -7.34,-153.42 -1.38,-22.22 -2.12,-44.44 -5.63,-66.46 -1.51,-9.47 -3.96,-26.64 -13.28,-32.26 5.39,3.09 10.78,6.19 16.16,9.27 -31.48,-10.53 -43.81,94.66 -44.76,110.64 -5.92,99 14.71,197.31 0,296.21 0.34,-2.29 -17.7,-7.44 -17.32,-10 v 0" /><path
         id="path174"
         style="fill:#231f20;fill-opacity:1;fill-rule:nonzero;stroke:none"
         d="m 4081.19,2230.97 c -22.75,55.08 -75.4,91.01 -135.81,83.09 -39.03,-5.12 -74.62,-33.2 -93.24,-66.66 -19.16,-34.42 -20.78,-76.9 -21.4,-115.28 -0.76,-48.02 2.91,-95.9 1.09,-143.95 -1.88,-49.12 -8.74,-97.81 -21.7,-145.25 -12.64,-46.23 -30.98,-95.41 -56.52,-136.05 1.55,2.46 7.07,2.48 8.66,5 21.38,34.02 35.51,72.99 48.7,110.83 14.25,40.96 22.04,83.89 26.51,126.92 8.46,81.36 -4.83,163.44 5.69,244.46 7.8,60.03 43.53,113.26 108.14,116.27 54.85,2.56 101.11,-35.7 121.23,-84.38 -0.15,0.33 8.85,4.52 8.65,5 v 0" /><path
         id="path176"
         style="fill:#ffffff;fill-opacity:1;fill-rule:nonzero;stroke:none"
         d="m 3687.43,1729.19 c 68.12,0 151.07,2.94 177.72,-62.2 v 0 c -17.77,-85.91 -53.31,-171.81 -59.24,-257.71 0,0 -2.97,0 -2.97,-2.97 -32.57,-11.84 -62.2,-5.92 -94.78,-2.95 -59.24,5.92 -71.09,2.95 -100.71,53.32 8.89,77.01 41.47,168.83 44.43,251.76 11.84,11.87 26.66,20.75 38.5,20.75" /><path
         id="path178"
         style="fill:#231f20;fill-opacity:1;fill-rule:nonzero;stroke:none"
         d="m 3678.77,1724.19 c 58.32,0.05 136.26,5.44 172.08,-50.77 10.58,-16.61 -0.69,-39.64 -5.31,-57.46 -6.39,-24.66 -13.65,-49.1 -20.55,-73.62 -12.76,-45.33 -23.93,-91.01 -27.74,-138.06 5.77,3.33 11.55,6.67 17.32,10 -6.37,-1.59 -17.02,-7.25 -20.29,-12.97 5.77,3.33 11.55,6.67 17.32,10 -40.77,-12.97 -84.57,-4.4 -126.22,0.15 -29.06,3.18 -46.03,14.46 -62.2,38.7 -11.68,17.51 -3.15,39.47 0.68,59.31 4.91,25.42 10.99,50.61 16.69,75.87 5.15,22.86 9.87,45.79 13.76,68.9 1.9,11.3 3.28,22.69 4.51,34.08 0.56,5.59 1,11.19 1.34,16.8 0.89,13.06 7.77,15.68 19.33,22.94 -5.67,-3.26 -11.35,-6.53 -17.02,-9.79 6.63,3.17 11.95,5.07 19.25,5.92 6.13,0.71 11.31,9.3 17.32,10 -12.89,-1.5 -23.16,-7.95 -34.07,-14.4 -8.05,-4.75 -14.84,-9.99 -21.75,-16.35 -2.14,-1.97 -1.42,-21.74 -1.72,-25.12 -0.77,-8.54 -1.99,-17.03 -3.18,-25.51 -9.55,-67.74 -31.06,-133.2 -39.53,-201.13 -0.82,-6.64 15.53,-23.63 19.9,-28.74 5.36,-6.29 11.98,-10.97 19.35,-14.58 18.08,-8.9 41.91,-8.1 61.46,-10 28.92,-2.83 67.85,-11.33 95.1,3.11 5.98,3.16 15.07,6.46 18.49,12.44 -5.78,-3.33 -11.56,-6.67 -17.33,-10 0.5,0.13 1,0.25 1.49,0.37 2.28,0.57 17.17,8.16 17.32,10 3.82,47.09 15.12,92.66 27.73,138.06 5.98,21.48 12.23,42.9 18.1,64.42 5.6,20.47 18.21,47.29 7.76,66.66 -30.9,57.35 -117.53,50.82 -172.07,50.77 -5.85,-0.01 -11.62,-9.99 -17.32,-10 v 0" /><path
         id="path180"
         style="fill:#231f20;fill-opacity:1;fill-rule:nonzero;stroke:none"
         d="m 3652,1040.96 c 56.42,-24.36 108.02,-58.011 163.01,-85.249 60.01,-29.719 126.95,-46.141 192.3,-59.313 135.34,-27.257 282.76,-7.957 416.81,18.184 3.12,0.598 5.59,4.398 8.65,5 -131.31,-25.613 -274.77,-44.262 -407.63,-19.953 -65.8,12.062 -132.71,29.281 -193.61,57.32 -58.41,26.891 -111.74,63.481 -170.88,89.011 -1.87,0.81 -6.88,-5.76 -8.65,-5 v 0" /><path
         id="path182"
         style="fill:#ad1c22;fill-opacity:1;fill-rule:nonzero;stroke:none"
         d="M 5952.75,673.992 H 0 V 0 h 5952.75 v 673.992" /><path
         id="path184"
         style="fill:#ad1c22;fill-opacity:1;fill-rule:nonzero;stroke:none"
         d="M 2.5,2.5 H 5950.25 V 671.492 H 2.5 Z m 5952.75,-5 H -2.5 V 676.492 H 5955.25 V -2.5" /><path
         id="path186"
         style="fill:#ffffff;fill-opacity:1;fill-rule:nonzero;stroke:none"
         d="m 485.348,469.211 v 62.418 h 276.59 V 469.211 H 660.758 V 194.039 H 586.527 V 469.211 H 485.348" /><path
         id="path188"
         style="fill:#ffffff;fill-opacity:1;fill-rule:nonzero;stroke:none"
         d="m 1030.01,219.809 c -25.52,-22.231 -60.83,-33.34 -105.905,-33.34 -45.703,0 -81.082,11.043 -106.14,33.101 -25.059,22.059 -37.59,56.102 -37.59,102.129 v 209.93 h 74.23 v -209.93 c 0,-9.148 0.786,-18.129 2.364,-26.961 1.578,-8.828 4.883,-16.617 9.929,-23.398 5.04,-6.777 12.055,-12.289 21.04,-16.551 8.988,-4.25 21.042,-6.379 36.167,-6.379 26.481,0 44.758,5.91 54.848,17.731 10.086,11.82 15.129,30.328 15.129,55.558 v 209.93 h 74.238 v -209.93 c 0,-45.711 -12.77,-79.668 -38.31,-101.89" /><path
         id="path190"
         style="fill:#ffffff;fill-opacity:1;fill-rule:nonzero;stroke:none"
         d="m 1268.78,378.898 c 17.03,0 29.79,3.793 38.3,11.352 8.51,7.57 12.76,19.859 12.76,36.879 0,16.391 -4.25,28.293 -12.76,35.703 -8.51,7.398 -21.27,11.109 -38.3,11.109 h -81.32 v -95.043 z m 26.48,152.731 c 15.13,0 28.76,-2.449 40.9,-7.34 12.13,-4.891 22.53,-11.578 31.2,-20.09 8.67,-8.508 15.29,-18.359 19.86,-29.551 4.57,-11.199 6.86,-23.25 6.86,-36.168 0,-19.859 -4.19,-37.039 -12.53,-51.539 -8.36,-14.5 -21.99,-25.531 -40.9,-33.101 v -0.93 c 9.14,-2.531 16.7,-6.39 22.69,-11.601 5.99,-5.188 10.88,-11.34 14.66,-18.43 3.78,-7.09 6.54,-14.899 8.27,-23.399 1.73,-8.519 2.91,-17.019 3.55,-25.539 0.31,-5.359 0.63,-11.66 0.95,-18.902 0.3,-7.258 0.86,-14.66 1.65,-22.23 0.78,-7.567 2.05,-14.739 3.78,-21.52 1.73,-6.769 4.33,-12.519 7.8,-17.25 h -74.22 c -4.11,10.711 -6.63,23.481 -7.57,38.301 -0.95,14.801 -2.37,28.988 -4.26,42.551 -2.52,17.648 -7.88,30.57 -16.07,38.769 -8.2,8.192 -21.6,12.289 -40.19,12.289 h -74.23 v -131.91 h -74.23 v 337.59 h 182.03" /><path
         id="path192"
         style="fill:#ffffff;fill-opacity:1;fill-rule:nonzero;stroke:none"
         d="M 1509.91,531.629 V 391.68 l 131.91,139.949 h 92.67 l -131.91,-133.34 144.68,-204.25 h -93.15 l -101.65,151.774 -42.55,-43.024 v -108.75 h -74.24 v 337.59 h 74.24" /><path
         id="path194"
         style="fill:#ffffff;fill-opacity:1;fill-rule:nonzero;stroke:none"
         d="m 1832.35,531.629 v -337.59 h -74.23 v 337.59 h 74.23" /><path
         id="path196"
         style="fill:#ffffff;fill-opacity:1;fill-rule:nonzero;stroke:none"
         d="m 1935.42,277.25 c 4.09,-7.879 9.53,-14.27 16.31,-19.148 6.78,-4.891 14.73,-8.5 23.88,-10.872 9.14,-2.359 18.59,-3.539 28.36,-3.539 6.63,0 13.72,0.539 21.28,1.649 7.57,1.101 14.66,3.23 21.28,6.379 6.62,3.152 12.13,7.492 16.55,13 4.41,5.511 6.62,12.531 6.62,21.051 0,9.132 -2.92,16.539 -8.75,22.21 -5.84,5.68 -13.47,10.399 -22.93,14.192 -9.46,3.777 -20.18,7.09 -32.15,9.93 -11.98,2.839 -24.12,5.98 -36.41,9.457 -12.61,3.14 -24.9,7 -36.88,11.582 -11.98,4.558 -22.69,10.468 -32.15,17.73 -9.45,7.238 -17.1,16.309 -22.93,27.18 -5.83,10.879 -8.75,24.039 -8.75,39.488 0,17.332 3.71,32.383 11.11,45.152 7.41,12.77 17.1,23.399 29.08,31.918 11.98,8.5 25.53,14.801 40.66,18.903 15.13,4.09 30.26,6.148 45.4,6.148 17.64,0 34.58,-1.969 50.82,-5.91 16.23,-3.949 30.65,-10.328 43.26,-19.141 12.6,-8.828 22.61,-20.097 30.03,-33.808 7.4,-13.711 11.1,-30.34 11.1,-49.891 h -71.86 c -0.64,10.09 -2.76,18.442 -6.38,25.059 -3.63,6.621 -8.44,11.82 -14.43,15.613 -5.99,3.777 -12.84,6.449 -20.56,8.039 -7.73,1.57 -16.16,2.359 -25.3,2.359 -5.99,0 -11.98,-0.64 -17.96,-1.902 -6,-1.258 -11.43,-3.457 -16.31,-6.617 -4.9,-3.152 -8.91,-7.09 -12.06,-11.809 -3.16,-4.73 -4.73,-10.73 -4.73,-17.972 0,-6.617 1.26,-11.981 3.78,-16.078 2.52,-4.102 7.48,-7.883 14.9,-11.34 7.4,-3.473 17.64,-6.942 30.73,-10.403 13.08,-3.468 30.18,-7.89 51.3,-13.25 6.3,-1.257 15.05,-3.539 26.24,-6.847 11.18,-3.301 22.29,-8.59 33.33,-15.832 11.03,-7.258 20.57,-16.961 28.61,-29.078 8.03,-12.141 12.05,-27.661 12.05,-46.582 0,-15.45 -3,-29.778 -8.98,-43.02 -5.99,-13.238 -14.89,-24.668 -26.72,-34.281 -11.81,-9.617 -26.47,-17.098 -43.97,-22.457 -17.49,-5.352 -37.74,-8.043 -60.75,-8.043 -18.6,0 -36.64,2.301 -54.14,6.863 -17.49,4.57 -32.94,11.727 -46.33,21.508 -13.4,9.769 -24.04,22.23 -31.92,37.351 -7.88,15.129 -11.66,33.098 -11.34,53.899 h 71.86 c 0,-11.352 2.05,-20.961 6.15,-28.84" /><path
         id="path198"
         style="fill:#ffffff;fill-opacity:1;fill-rule:nonzero;stroke:none"
         d="M 2240.85,531.629 V 402.082 h 136.64 v 129.547 h 74.23 v -337.59 h -74.23 V 339.66 H 2240.85 V 194.039 h -74.23 v 337.59 h 74.23" /><path
         id="path200"
         style="fill:#ffffff;fill-opacity:1;fill-rule:nonzero;stroke:none"
         d="m 2584.11,469.211 v 62.418 H 2860.7 V 469.211 H 2759.52 V 194.039 h -74.23 v 275.172 h -101.18" /><path
         id="path202"
         style="fill:#ffffff;fill-opacity:1;fill-rule:nonzero;stroke:none"
         d="m 3133.03,531.629 v -62.418 h -178.25 v -72.34 h 163.59 v -57.672 h -163.59 v -82.75 h 182.04 v -62.41 h -256.27 v 337.59 h 252.48" /><path
         id="path204"
         style="fill:#ffffff;fill-opacity:1;fill-rule:nonzero;stroke:none"
         d="m 3340.59,324.539 -42.55,123.859 h -0.95 l -43.97,-123.859 z m -4.25,207.09 126.23,-337.59 h -77.06 l -25.54,75.172 h -126.24 l -26.47,-75.172 h -74.7 l 127.65,337.59 h 76.13" /><path
         id="path206"
         style="fill:#ffffff;fill-opacity:1;fill-rule:nonzero;stroke:none"
         d="m 3658.78,194.039 -109.22,337.59 h 76.12 l 75.18,-237.359 h 0.95 l 76.12,237.359 h 76.59 l -112.05,-337.59 h -83.69" /><path
         id="path208"
         style="fill:#ffffff;fill-opacity:1;fill-rule:nonzero;stroke:none"
         d="m 4116.92,531.629 v -62.418 h -178.24 v -72.34 h 163.6 v -57.672 h -163.6 v -82.75 h 182.03 v -62.41 h -256.26 v 337.59 h 252.47" /><path
         id="path210"
         style="fill:#ffffff;fill-opacity:1;fill-rule:nonzero;stroke:none"
         d="m 4368.46,441.551 c -4.42,7.101 -9.93,13.32 -16.56,18.679 -6.61,5.352 -14.11,9.532 -22.45,12.532 -8.36,2.988 -17.11,4.488 -26.24,4.488 -16.72,0 -30.9,-3.238 -42.56,-9.699 -11.66,-6.461 -21.12,-15.121 -28.36,-26 -7.26,-10.871 -12.53,-23.238 -15.84,-37.11 -3.32,-13.882 -4.97,-28.211 -4.97,-43.031 0,-14.18 1.65,-27.98 4.97,-41.371 3.31,-13.398 8.58,-25.449 15.84,-36.168 7.24,-10.723 16.7,-19.308 28.36,-25.769 11.66,-6.461 25.84,-9.692 42.56,-9.692 22.7,0 40.42,6.93 53.19,20.801 12.77,13.871 20.56,32.148 23.4,54.848 h 71.87 c -1.89,-21.118 -6.78,-40.188 -14.66,-57.207 -7.88,-17.02 -18.28,-31.52 -31.2,-43.493 -12.93,-11.988 -28.06,-21.129 -45.39,-27.429 -17.34,-6.309 -36.41,-9.461 -57.21,-9.461 -25.85,0 -49.1,4.492 -69.74,13.48 -20.65,8.981 -38.06,21.34 -52.25,37.121 -14.18,15.75 -25.06,34.27 -32.62,55.551 -7.56,21.27 -11.34,44.199 -11.34,68.789 0,25.219 3.78,48.621 11.34,70.219 7.56,21.582 18.44,40.422 32.62,56.492 14.19,16.078 31.6,28.68 52.25,37.828 20.64,9.129 43.89,13.711 69.74,13.711 18.6,0 36.17,-2.68 52.72,-8.031 16.54,-5.367 31.36,-13.18 44.44,-23.41 13.08,-10.25 23.88,-22.93 32.38,-38.059 8.52,-15.129 13.87,-32.469 16.08,-52.012 h -71.87 c -1.26,8.512 -4.09,16.313 -8.5,23.403" /><path
         id="path212"
         style="fill:#ffffff;fill-opacity:1;fill-rule:nonzero;stroke:none"
         d="m 4456.87,469.211 v 62.418 h 276.59 V 469.211 H 4632.28 V 194.039 h -74.23 v 275.172 h -101.18" /><path
         id="path214"
         style="fill:#ffffff;fill-opacity:1;fill-rule:nonzero;stroke:none"
         d="m 4817.85,320.039 c 3.31,-13.398 8.59,-25.449 15.84,-36.168 7.25,-10.723 16.71,-19.308 28.37,-25.769 11.66,-6.461 25.84,-9.692 42.56,-9.692 16.7,0 30.88,3.231 42.55,9.692 11.66,6.461 21.11,15.046 28.37,25.769 7.24,10.719 12.53,22.77 15.84,36.168 3.31,13.391 4.96,27.191 4.96,41.371 0,14.82 -1.65,29.149 -4.96,43.031 -3.31,13.872 -8.6,26.239 -15.84,37.11 -7.26,10.879 -16.71,19.539 -28.37,26 -11.67,6.461 -25.85,9.699 -42.55,9.699 -16.72,0 -30.9,-3.238 -42.56,-9.699 -11.66,-6.461 -21.12,-15.121 -28.37,-26 -7.25,-10.871 -12.53,-23.238 -15.84,-37.11 -3.31,-13.882 -4.96,-28.211 -4.96,-43.031 0,-14.18 1.65,-27.98 4.96,-41.371 z m -67.84,111.59 c 7.56,21.582 18.44,40.422 32.62,56.492 14.19,16.078 31.6,28.68 52.24,37.828 20.65,9.129 43.9,13.711 69.75,13.711 26.15,0 49.48,-4.582 69.97,-13.711 20.49,-9.148 37.82,-21.75 52.01,-37.828 14.18,-16.07 25.06,-34.91 32.62,-56.492 7.57,-21.598 11.35,-45 11.35,-70.219 0,-24.59 -3.78,-47.519 -11.35,-68.789 -7.56,-21.281 -18.44,-39.801 -32.62,-55.551 -14.19,-15.781 -31.52,-28.14 -52.01,-37.121 -20.49,-8.988 -43.82,-13.48 -69.97,-13.48 -25.85,0 -49.1,4.492 -69.75,13.48 -20.64,8.981 -38.05,21.34 -52.24,37.121 -14.18,15.75 -25.06,34.27 -32.62,55.551 -7.57,21.27 -11.35,44.199 -11.35,68.789 0,25.219 3.78,48.621 11.35,70.219" /><path
         id="path216"
         style="fill:#ffffff;fill-opacity:1;fill-rule:nonzero;stroke:none"
         d="m 5257.8,378.898 c 17.02,0 29.79,3.793 38.3,11.352 8.51,7.57 12.77,19.859 12.77,36.879 0,16.391 -4.26,28.293 -12.77,35.703 -8.51,7.398 -21.28,11.109 -38.3,11.109 h -81.32 v -95.043 z m 26.49,152.731 c 15.12,0 28.76,-2.449 40.89,-7.34 12.13,-4.891 22.53,-11.578 31.21,-20.09 8.66,-8.508 15.28,-18.359 19.85,-29.551 4.57,-11.199 6.86,-23.25 6.86,-36.168 0,-19.859 -4.18,-37.039 -12.53,-51.539 -8.35,-14.5 -21.99,-25.531 -40.9,-33.101 v -0.93 c 9.14,-2.531 16.71,-6.39 22.69,-11.601 5.99,-5.188 10.88,-11.34 14.66,-18.43 3.79,-7.09 6.54,-14.899 8.28,-23.399 1.73,-8.519 2.91,-17.019 3.55,-25.539 0.3,-5.359 0.62,-11.66 0.94,-18.902 0.31,-7.258 0.86,-14.66 1.66,-22.23 0.78,-7.567 2.04,-14.739 3.77,-21.52 1.73,-6.769 4.34,-12.519 7.81,-17.25 h -74.23 c -4.1,10.711 -6.62,23.481 -7.57,38.301 -0.95,14.801 -2.36,28.988 -4.26,42.551 -2.52,17.648 -7.88,30.57 -16.07,38.769 -8.19,8.192 -21.59,12.289 -40.19,12.289 h -74.23 v -131.91 h -74.22 v 337.59 h 182.03" /></g></g></svg>